<svg width="318" height="255" viewBox="0 0 318 255" fill="none" xmlns="http://www.w3.org/2000/svg">
<rect width="318" height="255" fill="#F6F6EF"/>
<path d="M1 127.5H32.625V159.125H1V127.5Z" stroke="#A1A1AA" stroke-width="0.5"/>
<path d="M1 222.375H32.625V254H9.16129C4.65393 254 1 250.346 1 245.839V222.375Z" stroke="#A1A1AA" stroke-width="0.5"/>
<rect x="254" y="127.5" width="31.625" height="31.625" stroke="#A1A1AA" stroke-width="0.5"/>
<rect x="254" y="222.375" width="31.625" height="31.625" stroke="#A1A1AA" stroke-width="0.5"/>
<rect x="127.5" y="127.5" width="31.625" height="31.625" stroke="#A1A1AA" stroke-width="0.5"/>
<rect x="127.5" y="222.375" width="31.625" height="31.625" stroke="#A1A1AA" stroke-width="0.5"/>
<rect x="64.25" y="127.5" width="31.625" height="31.625" stroke="#A1A1AA" stroke-width="0.5"/>
<rect x="64.25" y="222.375" width="31.625" height="31.625" stroke="#A1A1AA" stroke-width="0.5"/>
<rect x="190.75" y="127.5" width="31.625" height="31.625" stroke="#A1A1AA" stroke-width="0.5"/>
<rect x="190.75" y="222.375" width="31.625" height="31.625" stroke="#A1A1AA" stroke-width="0.5"/>
<rect x="32.625" y="127.5" width="31.625" height="31.625" stroke="#A1A1AA" stroke-width="0.5"/>
<rect x="32.625" y="222.375" width="31.625" height="31.625" stroke="#A1A1AA" stroke-width="0.5"/>
<path d="M285.625 127.5H317.25V159.125H285.625V127.5Z" stroke="#A1A1AA" stroke-width="0.5"/>
<path d="M285.625 222.375H317.25V245.839C317.25 250.346 313.596 254 309.089 254H285.625V222.375Z" stroke="#A1A1AA" stroke-width="0.5"/>
<rect x="159.125" y="127.5" width="31.625" height="31.625" stroke="#A1A1AA" stroke-width="0.5"/>
<rect x="159.125" y="222.375" width="31.625" height="31.625" stroke="#A1A1AA" stroke-width="0.5"/>
<rect x="95.875" y="127.5" width="31.625" height="31.625" stroke="#A1A1AA" stroke-width="0.5"/>
<rect x="95.875" y="222.375" width="31.625" height="31.625" stroke="#A1A1AA" stroke-width="0.5"/>
<rect x="222.375" y="127.5" width="31.625" height="31.625" stroke="#A1A1AA" stroke-width="0.5"/>
<rect x="222.375" y="222.375" width="31.625" height="31.625" stroke="#A1A1AA" stroke-width="0.5"/>
<rect x="1" y="64.25" width="31.625" height="31.625" stroke="#A1A1AA" stroke-width="0.5"/>
<rect x="1" y="159.125" width="31.625" height="31.625" stroke="#A1A1AA" stroke-width="0.5"/>
<rect x="254" y="64.25" width="31.625" height="31.625" stroke="#A1A1AA" stroke-width="0.5"/>
<rect x="254" y="159.125" width="31.625" height="31.625" stroke="#A1A1AA" stroke-width="0.5"/>
<rect x="127.5" y="64.25" width="31.625" height="31.625" stroke="#A1A1AA" stroke-width="0.5"/>
<rect x="127.5" y="159.125" width="31.625" height="31.625" stroke="#A1A1AA" stroke-width="0.5"/>
<rect x="64.25" y="64.25" width="31.625" height="31.625" stroke="#A1A1AA" stroke-width="0.5"/>
<rect x="64.25" y="159.125" width="31.625" height="31.625" stroke="#A1A1AA" stroke-width="0.5"/>
<rect x="190.75" y="64.25" width="31.625" height="31.625" stroke="#A1A1AA" stroke-width="0.5"/>
<rect x="190.75" y="159.125" width="31.625" height="31.625" stroke="#A1A1AA" stroke-width="0.5"/>
<rect x="32.625" y="64.25" width="31.625" height="31.625" stroke="#A1A1AA" stroke-width="0.5"/>
<rect x="32.625" y="159.125" width="31.625" height="31.625" stroke="#A1A1AA" stroke-width="0.5"/>
<rect x="285.625" y="64.25" width="31.625" height="31.625" stroke="#A1A1AA" stroke-width="0.5"/>
<rect x="285.625" y="159.125" width="31.625" height="31.625" stroke="#A1A1AA" stroke-width="0.5"/>
<rect x="159.125" y="64.25" width="31.625" height="31.625" stroke="#A1A1AA" stroke-width="0.5"/>
<rect x="159.125" y="159.125" width="31.625" height="31.625" stroke="#A1A1AA" stroke-width="0.5"/>
<rect x="95.875" y="64.25" width="31.625" height="31.625" stroke="#A1A1AA" stroke-width="0.5"/>
<rect x="95.875" y="159.125" width="31.625" height="31.625" stroke="#A1A1AA" stroke-width="0.5"/>
<rect x="222.375" y="64.25" width="31.625" height="31.625" stroke="#A1A1AA" stroke-width="0.5"/>
<rect x="222.375" y="159.125" width="31.625" height="31.625" stroke="#A1A1AA" stroke-width="0.5"/>
<rect x="1" y="32.625" width="31.625" height="31.625" stroke="#A1A1AA" stroke-width="0.5"/>
<path d="M1 9.16129C1 4.65393 4.65393 1 9.16129 1H32.625V32.625H1V9.16129Z" stroke="#A1A1AA" stroke-width="0.5"/>
<rect x="254" y="32.625" width="31.625" height="31.625" stroke="#A1A1AA" stroke-width="0.5"/>
<rect x="254" y="1" width="31.625" height="31.625" stroke="#A1A1AA" stroke-width="0.5"/>
<rect x="127.5" y="32.625" width="31.625" height="31.625" stroke="#A1A1AA" stroke-width="0.5"/>
<rect x="127.5" y="1" width="31.625" height="31.625" stroke="#A1A1AA" stroke-width="0.5"/>
<rect x="64.25" y="32.625" width="31.625" height="31.625" stroke="#A1A1AA" stroke-width="0.5"/>
<rect x="64.25" y="1" width="31.625" height="31.625" stroke="#A1A1AA" stroke-width="0.5"/>
<rect x="190.75" y="32.625" width="31.625" height="31.625" stroke="#A1A1AA" stroke-width="0.5"/>
<rect x="190.75" y="1" width="31.625" height="31.625" stroke="#A1A1AA" stroke-width="0.5"/>
<rect x="32.625" y="32.625" width="31.625" height="31.625" stroke="#A1A1AA" stroke-width="0.5"/>
<rect x="32.625" y="1" width="31.625" height="31.625" stroke="#A1A1AA" stroke-width="0.5"/>
<rect x="285.625" y="32.625" width="31.625" height="31.625" stroke="#A1A1AA" stroke-width="0.5"/>
<path d="M285.625 1H309.089C313.596 1 317.25 4.65393 317.25 9.16129V32.625H285.625V1Z" stroke="#A1A1AA" stroke-width="0.5"/>
<rect x="159.125" y="32.625" width="31.625" height="31.625" stroke="#A1A1AA" stroke-width="0.5"/>
<rect x="159.125" y="1" width="31.625" height="31.625" stroke="#A1A1AA" stroke-width="0.5"/>
<rect x="95.875" y="32.625" width="31.625" height="31.625" stroke="#A1A1AA" stroke-width="0.5"/>
<rect x="95.875" y="1" width="31.625" height="31.625" stroke="#A1A1AA" stroke-width="0.5"/>
<rect x="222.375" y="32.625" width="31.625" height="31.625" stroke="#A1A1AA" stroke-width="0.5"/>
<rect x="222.375" y="1" width="31.625" height="31.625" stroke="#A1A1AA" stroke-width="0.5"/>
<rect x="1" y="95.875" width="31.625" height="31.625" stroke="#A1A1AA" stroke-width="0.5"/>
<rect x="1" y="190.75" width="31.625" height="31.625" stroke="#A1A1AA" stroke-width="0.5"/>
<rect x="254" y="95.875" width="31.625" height="31.625" stroke="#A1A1AA" stroke-width="0.5"/>
<rect x="254" y="190.75" width="31.625" height="31.625" stroke="#A1A1AA" stroke-width="0.5"/>
<rect x="127.5" y="95.875" width="31.625" height="31.625" stroke="#A1A1AA" stroke-width="0.5"/>
<rect x="127.5" y="190.75" width="31.625" height="31.625" stroke="#A1A1AA" stroke-width="0.5"/>
<rect x="64.25" y="95.875" width="31.625" height="31.625" stroke="#A1A1AA" stroke-width="0.5"/>
<rect x="64.25" y="190.75" width="31.625" height="31.625" stroke="#A1A1AA" stroke-width="0.5"/>
<rect x="190.75" y="95.875" width="31.625" height="31.625" stroke="#A1A1AA" stroke-width="0.5"/>
<rect x="190.75" y="190.75" width="31.625" height="31.625" stroke="#A1A1AA" stroke-width="0.5"/>
<rect x="32.625" y="95.875" width="31.625" height="31.625" stroke="#A1A1AA" stroke-width="0.5"/>
<rect x="32.625" y="190.75" width="31.625" height="31.625" stroke="#A1A1AA" stroke-width="0.5"/>
<rect x="285.625" y="95.875" width="31.625" height="31.625" stroke="#A1A1AA" stroke-width="0.5"/>
<rect x="285.625" y="190.75" width="31.625" height="31.625" stroke="#A1A1AA" stroke-width="0.5"/>
<rect x="159.125" y="95.875" width="31.625" height="31.625" stroke="#A1A1AA" stroke-width="0.5"/>
<rect x="159.125" y="190.75" width="31.625" height="31.625" stroke="#A1A1AA" stroke-width="0.5"/>
<rect x="95.875" y="95.875" width="31.625" height="31.625" stroke="#A1A1AA" stroke-width="0.5"/>
<rect x="95.875" y="190.75" width="31.625" height="31.625" stroke="#A1A1AA" stroke-width="0.5"/>
<rect x="222.375" y="95.875" width="31.625" height="31.625" stroke="#A1A1AA" stroke-width="0.5"/>
<rect x="222.375" y="190.75" width="31.625" height="31.625" stroke="#A1A1AA" stroke-width="0.5"/>
<rect x="64" y="191" width="190" height="32" fill="#037847" stroke="#A1A1AA" stroke-width="0.5"/>
<rect x="64.5" y="33" width="189" height="94.3" rx="12" fill="#F6F6EF"/>
<path d="M74 58.5C74 56.0147 76.0147 54 78.5 54H239.5C241.985 54 244 56.0147 244 58.5C244 60.9853 241.985 63 239.5 63H78.5C76.0147 63 74 60.9853 74 58.5Z" fill="#D6501E"/>
<path d="M74 79.5C74 77.0147 76.0147 75 78.5 75H239.5C241.985 75 244 77.0147 244 79.5C244 81.9853 241.985 84 239.5 84H78.5C76.0147 84 74 81.9853 74 79.5Z" fill="#BF9811"/>
<path d="M74 100.5C74 98.0147 76.0147 96 78.5 96H154.5C156.985 96 159 98.0147 159 100.5C159 102.985 156.985 105 154.5 105H78.5C76.0147 105 74 102.985 74 100.5Z" fill="#386D8C"/>
<path d="M105 202.192V200.1H118.599V202.192" stroke="#F6F6EF"/>
<path d="M111.8 200.1L111.8 213.699" stroke="#F6F6EF"/>
<line x1="110.23" y1="213.198" x2="113.369" y2="213.198" stroke="#F6F6EF"/>
<path d="M73.7002 202.192V200.1H87.2995V202.192" stroke="#F6F6EF"/>
<path d="M80.5 200.1L80.5 213.699" stroke="#F6F6EF"/>
<line x1="78.9307" y1="213.198" x2="82.069" y2="213.198" stroke="#F6F6EF"/>
<path d="M134.7 202.192V200.1H148.3V202.192" stroke="#F6F6EF"/>
<path d="M141.5 200.1L141.5 213.699" stroke="#F6F6EF"/>
<line x1="139.931" y1="213.198" x2="143.069" y2="213.198" stroke="#F6F6EF"/>
<path d="M168 202.192V200.1H181.599V202.192" stroke="#F6F6EF"/>
<path d="M174.8 200.1L174.8 213.699" stroke="#F6F6EF"/>
<line x1="173.23" y1="213.198" x2="176.369" y2="213.198" stroke="#F6F6EF"/>
<path d="M200 202.192V200.1H213.599V202.192" stroke="#F6F6EF"/>
<path d="M206.8 200.1L206.8 213.699" stroke="#F6F6EF"/>
<line x1="205.23" y1="213.198" x2="208.369" y2="213.198" stroke="#F6F6EF"/>
<path d="M231 202.192V200.1H244.599V202.192" stroke="#F6F6EF"/>
<path d="M237.8 200.1L237.8 213.699" stroke="#F6F6EF"/>
<line x1="236.23" y1="213.198" x2="239.369" y2="213.198" stroke="#F6F6EF"/>
<path d="M147.03 147L143 143.03L139.03 147.061" stroke="black" stroke-width="0.5"/>
<path d="M179.03 147L175 143.03L171.03 147.061" stroke="black" stroke-width="0.5"/>
<path d="M143 143L143 176" stroke="black" stroke-width="0.5"/>
<path d="M175 143L175 176" stroke="black" stroke-width="0.5"/>
</svg>
