<svg width="312" height="157" viewBox="0 0 312 157" fill="none" xmlns="http://www.w3.org/2000/svg">
<path d="M1 124.622H32.3804V156.002H1V124.622Z" stroke="#D1D5DB" stroke-width="0.5"/>
<rect x="249.189" y="124.622" width="30.4295" height="31.3804" stroke="#D1D5DB" stroke-width="0.5"/>
<rect x="124.619" y="124.622" width="31.3804" height="31.3804" stroke="#D1D5DB" stroke-width="0.5"/>
<rect x="62.8105" y="124.622" width="31.3804" height="31.3804" stroke="#D1D5DB" stroke-width="0.5"/>
<rect x="187.381" y="124.622" width="30.4295" height="31.3804" stroke="#D1D5DB" stroke-width="0.5"/>
<rect x="32.3809" y="124.622" width="30.4295" height="31.3804" stroke="#D1D5DB" stroke-width="0.5"/>
<path d="M279.619 124.622H311V156.002H279.619V124.622Z" stroke="#D1D5DB" stroke-width="0.5"/>
<rect x="156" y="124.622" width="31.3804" height="31.3804" stroke="#D1D5DB" stroke-width="0.5"/>
<rect x="94.1895" y="124.622" width="30.4295" height="31.3804" stroke="#D1D5DB" stroke-width="0.5"/>
<rect x="217.811" y="124.622" width="31.3804" height="31.3804" stroke="#D1D5DB" stroke-width="0.5"/>
<rect x="1" y="62.8103" width="31.3804" height="31.3804" stroke="#D1D5DB" stroke-width="0.5"/>
<rect x="249.19" y="62.8103" width="30.4295" height="31.3804" stroke="#D1D5DB" stroke-width="0.5"/>
<rect x="124.619" y="62.8103" width="31.3804" height="31.3804" stroke="#D1D5DB" stroke-width="0.5"/>
<rect x="62.8105" y="62.8103" width="31.3804" height="31.3804" stroke="#D1D5DB" stroke-width="0.5"/>
<rect x="187.381" y="62.8103" width="30.4295" height="31.3804" stroke="#D1D5DB" stroke-width="0.5"/>
<rect x="32.3809" y="62.8103" width="30.4295" height="31.3804" stroke="#D1D5DB" stroke-width="0.5"/>
<rect x="279.619" y="62.8103" width="31.3804" height="31.3804" stroke="#D1D5DB" stroke-width="0.5"/>
<rect x="156" y="62.8103" width="31.3804" height="31.3804" stroke="#D1D5DB" stroke-width="0.5"/>
<rect x="94.1895" y="62.8103" width="30.4295" height="31.3804" stroke="#D1D5DB" stroke-width="0.5"/>
<rect x="217.811" y="62.8103" width="31.3804" height="31.3804" stroke="#D1D5DB" stroke-width="0.5"/>
<rect x="1" y="32.3779" width="31.3804" height="30.4295" stroke="#D1D5DB" stroke-width="0.5"/>
<path d="M1 9C1 4.58172 4.58172 1 9 1H32.3804V32.3804H1V9Z" stroke="#D1D5DB" stroke-width="0.5"/>
<rect x="249.189" y="32.3779" width="30.4295" height="30.4295" stroke="#D1D5DB" stroke-width="0.5"/>
<rect x="249.19" y="1" width="30.4295" height="31.3804" stroke="#D1D5DB" stroke-width="0.5"/>
<rect x="124.619" y="32.3779" width="31.3804" height="30.4295" stroke="#D1D5DB" stroke-width="0.5"/>
<rect x="124.619" y="1" width="31.3804" height="31.3804" stroke="#D1D5DB" stroke-width="0.5"/>
<rect x="62.8105" y="32.3779" width="31.3804" height="30.4295" stroke="#D1D5DB" stroke-width="0.5"/>
<rect x="62.8105" y="1" width="31.3804" height="31.3804" stroke="#D1D5DB" stroke-width="0.5"/>
<rect x="187.381" y="32.3779" width="30.4295" height="30.4295" stroke="#D1D5DB" stroke-width="0.5"/>
<rect x="187.381" y="1" width="30.4295" height="31.3804" stroke="#D1D5DB" stroke-width="0.5"/>
<rect x="32.3809" y="32.3779" width="30.4295" height="30.4295" stroke="#D1D5DB" stroke-width="0.5"/>
<rect x="32.3809" y="1" width="30.4295" height="31.3804" stroke="#D1D5DB" stroke-width="0.5"/>
<rect x="279.619" y="32.3779" width="31.3804" height="30.4295" stroke="#D1D5DB" stroke-width="0.5"/>
<path d="M279.619 1H303C307.418 1 311 4.58172 311 9V32.3804H279.619V1Z" stroke="#D1D5DB" stroke-width="0.5"/>
<rect x="156" y="32.3779" width="31.3804" height="30.4295" stroke="#D1D5DB" stroke-width="0.5"/>
<rect x="156" y="1" width="31.3804" height="31.3804" stroke="#D1D5DB" stroke-width="0.5"/>
<rect x="94.1895" y="32.3779" width="30.4295" height="30.4295" stroke="#D1D5DB" stroke-width="0.5"/>
<rect x="94.1895" y="1" width="30.4295" height="31.3804" stroke="#D1D5DB" stroke-width="0.5"/>
<rect x="217.811" y="32.3779" width="31.3804" height="30.4295" stroke="#D1D5DB" stroke-width="0.5"/>
<rect x="217.811" y="1" width="31.3804" height="31.3804" stroke="#D1D5DB" stroke-width="0.5"/>
<rect x="1" y="94.1895" width="31.3804" height="30.4295" stroke="#D1D5DB" stroke-width="0.5"/>
<rect x="249.19" y="94.1895" width="30.4295" height="30.4295" stroke="#D1D5DB" stroke-width="0.5"/>
<rect x="124.619" y="94.1895" width="31.3804" height="30.4295" stroke="#D1D5DB" stroke-width="0.5"/>
<rect x="62.8105" y="94.1895" width="31.3804" height="30.4295" stroke="#D1D5DB" stroke-width="0.5"/>
<rect x="187.381" y="94.1895" width="30.4295" height="30.4295" stroke="#D1D5DB" stroke-width="0.5"/>
<rect x="32.3809" y="94.1895" width="30.4295" height="30.4295" stroke="#D1D5DB" stroke-width="0.5"/>
<rect x="279.619" y="94.1895" width="31.3804" height="30.4295" stroke="#D1D5DB" stroke-width="0.5"/>
<rect x="156" y="94.1895" width="31.3804" height="30.4295" stroke="#D1D5DB" stroke-width="0.5"/>
<rect x="94.1895" y="94.1895" width="30.4295" height="30.4295" stroke="#D1D5DB" stroke-width="0.5"/>
<rect x="217.811" y="94.1895" width="31.3804" height="30.4295" stroke="#D1D5DB" stroke-width="0.5"/>
<path d="M311 156C311 123.967 297.121 98 280 98C262.879 98 249 123.967 249 156" stroke="black" stroke-width="0.5"/>
<path d="M249 156C249 104.638 214.302 63 171.5 63C128.698 63 94 104.638 94 156" stroke="black" stroke-width="0.5"/>
<path d="M94 156C94 84.9255 68.3987 24.347 32.5 1.12793" stroke="black" stroke-width="0.5"/>
<circle cx="187" cy="63" r="17" fill="#B84317"/>
</svg>
