<svg width="342" height="467" viewBox="0 0 342 467" fill="none" xmlns="http://www.w3.org/2000/svg">
<path d="M0 466.5H342V31H311V0H0V466.5Z" fill="#A78306"/>
<path d="M314 28H342L314 0V28Z" fill="#A78306"/>
<g opacity="0.2">
<rect x="16" y="326" width="31" height="31" stroke="white" stroke-width="0.5"/>
<rect x="16" y="388" width="31" height="31" stroke="white" stroke-width="0.5"/>
<rect x="264" y="326" width="31" height="31" stroke="white" stroke-width="0.5"/>
<rect x="264" y="388" width="31" height="31" stroke="white" stroke-width="0.5"/>
<rect x="140" y="326" width="31" height="31" stroke="white" stroke-width="0.5"/>
<rect x="140" y="388" width="31" height="31" stroke="white" stroke-width="0.5"/>
<rect x="78" y="326" width="31" height="31" stroke="white" stroke-width="0.5"/>
<rect x="78" y="388" width="31" height="31" stroke="white" stroke-width="0.5"/>
<rect x="202" y="326" width="31" height="31" stroke="white" stroke-width="0.5"/>
<rect x="202" y="388" width="31" height="31" stroke="white" stroke-width="0.5"/>
<rect x="47" y="326" width="31" height="31" stroke="white" stroke-width="0.5"/>
<rect x="47" y="388" width="31" height="31" stroke="white" stroke-width="0.5"/>
<rect x="295" y="326" width="31" height="31" stroke="white" stroke-width="0.5"/>
<rect x="295" y="388" width="31" height="31" stroke="white" stroke-width="0.5"/>
<rect x="171" y="326" width="31" height="31" stroke="white" stroke-width="0.5"/>
<rect x="171" y="388" width="31" height="31" stroke="white" stroke-width="0.5"/>
<rect x="109" y="326" width="31" height="31" stroke="white" stroke-width="0.5"/>
<rect x="109" y="388" width="31" height="31" stroke="white" stroke-width="0.5"/>
<rect x="233" y="326" width="31" height="31" stroke="white" stroke-width="0.5"/>
<rect x="233" y="388" width="31" height="31" stroke="white" stroke-width="0.5"/>
<rect x="16" y="140" width="31" height="31" stroke="white" stroke-width="0.5"/>
<rect x="264" y="140" width="31" height="31" stroke="white" stroke-width="0.5"/>
<rect x="140" y="140" width="31" height="31" stroke="white" stroke-width="0.5"/>
<rect x="78" y="140" width="31" height="31" stroke="white" stroke-width="0.5"/>
<rect x="202" y="140" width="31" height="31" stroke="white" stroke-width="0.5"/>
<rect x="47" y="140" width="31" height="31" stroke="white" stroke-width="0.5"/>
<rect x="295" y="140" width="31" height="31" stroke="white" stroke-width="0.5"/>
<rect x="171" y="140" width="31" height="31" stroke="white" stroke-width="0.5"/>
<rect x="109" y="140" width="31" height="31" stroke="white" stroke-width="0.5"/>
<rect x="233" y="140" width="31" height="31" stroke="white" stroke-width="0.5"/>
<rect x="16" y="78" width="31" height="31" stroke="white" stroke-width="0.5"/>
<rect x="264" y="78" width="31" height="31" stroke="white" stroke-width="0.5"/>
<rect x="140" y="78" width="31" height="31" stroke="white" stroke-width="0.5"/>
<rect x="78" y="78" width="31" height="31" stroke="white" stroke-width="0.5"/>
<rect x="202" y="78" width="31" height="31" stroke="white" stroke-width="0.5"/>
<rect x="47" y="78" width="31" height="31" stroke="white" stroke-width="0.5"/>
<rect x="295" y="78" width="31" height="31" stroke="white" stroke-width="0.5"/>
<rect x="295" y="47" width="31" height="31" stroke="white" stroke-width="0.5"/>
<rect x="171" y="78" width="31" height="31" stroke="white" stroke-width="0.5"/>
<rect x="109" y="78" width="31" height="31" stroke="white" stroke-width="0.5"/>
<rect x="233" y="78" width="31" height="31" stroke="white" stroke-width="0.5"/>
<rect x="16" y="202" width="31" height="31" stroke="white" stroke-width="0.5"/>
<rect x="16" y="264" width="31" height="31" stroke="white" stroke-width="0.5"/>
<rect x="264" y="202" width="31" height="31" stroke="white" stroke-width="0.5"/>
<rect x="264" y="264" width="31" height="31" stroke="white" stroke-width="0.5"/>
<rect x="140" y="202" width="31" height="31" stroke="white" stroke-width="0.5"/>
<rect x="140" y="264" width="31" height="31" stroke="white" stroke-width="0.5"/>
<rect x="78" y="202" width="31" height="31" stroke="white" stroke-width="0.5"/>
<rect x="78" y="264" width="31" height="31" stroke="white" stroke-width="0.5"/>
<rect x="202" y="202" width="31" height="31" stroke="white" stroke-width="0.5"/>
<rect x="202" y="264" width="31" height="31" stroke="white" stroke-width="0.5"/>
<rect x="47" y="202" width="31" height="31" stroke="white" stroke-width="0.5"/>
<rect x="47" y="264" width="31" height="31" stroke="white" stroke-width="0.5"/>
<rect x="295" y="202" width="31" height="31" stroke="white" stroke-width="0.5"/>
<rect x="295" y="264" width="31" height="31" stroke="white" stroke-width="0.5"/>
<rect x="171" y="202" width="31" height="31" stroke="white" stroke-width="0.5"/>
<rect x="171" y="264" width="31" height="31" stroke="white" stroke-width="0.5"/>
<rect x="109" y="202" width="31" height="31" stroke="white" stroke-width="0.5"/>
<rect x="109" y="264" width="31" height="31" stroke="white" stroke-width="0.5"/>
<rect x="233" y="202" width="31" height="31" stroke="white" stroke-width="0.5"/>
<rect x="233" y="264" width="31" height="31" stroke="white" stroke-width="0.5"/>
<rect x="16" y="47" width="31" height="31" stroke="white" stroke-width="0.5"/>
<path d="M16 24C16 19.5817 19.5817 16 24 16H47V47H16V24Z" stroke="white" stroke-width="0.5"/>
<rect x="140" y="47" width="31" height="31" stroke="white" stroke-width="0.5"/>
<rect x="140" y="16" width="31" height="31" stroke="white" stroke-width="0.5"/>
<rect x="78" y="47" width="31" height="31" stroke="white" stroke-width="0.5"/>
<rect x="78" y="16" width="31" height="31" stroke="white" stroke-width="0.5"/>
<rect x="202" y="47" width="31" height="31" stroke="white" stroke-width="0.5"/>
<rect x="202" y="16" width="31" height="31" stroke="white" stroke-width="0.5"/>
<rect x="47" y="47" width="31" height="31" stroke="white" stroke-width="0.5"/>
<rect x="47" y="16" width="31" height="31" stroke="white" stroke-width="0.5"/>
<rect x="171" y="47" width="31" height="31" stroke="white" stroke-width="0.5"/>
<rect x="171" y="16" width="31" height="31" stroke="white" stroke-width="0.5"/>
<rect x="109" y="47" width="31" height="31" stroke="white" stroke-width="0.5"/>
<rect x="109" y="16" width="31" height="31" stroke="white" stroke-width="0.5"/>
<rect x="233" y="47" width="31" height="31" stroke="white" stroke-width="0.5"/>
<rect x="264" y="47" width="31" height="31" stroke="white" stroke-width="0.5"/>
<rect x="233" y="16" width="31" height="31" stroke="white" stroke-width="0.5"/>
<rect x="264" y="16" width="31" height="31" stroke="white" stroke-width="0.5"/>
<path d="M16 419H47V450H24C19.5817 450 16 446.418 16 442V419Z" stroke="white" stroke-width="0.5"/>
<rect x="264" y="419" width="31" height="31" stroke="white" stroke-width="0.5"/>
<rect x="140" y="419" width="31" height="31" stroke="white" stroke-width="0.5"/>
<rect x="78" y="419" width="31" height="31" stroke="white" stroke-width="0.5"/>
<rect x="202" y="419" width="31" height="31" stroke="white" stroke-width="0.5"/>
<rect x="47" y="419" width="31" height="31" stroke="white" stroke-width="0.5"/>
<path d="M295 419H326V442C326 446.418 322.418 450 318 450H295V419Z" stroke="white" stroke-width="0.5"/>
<rect x="171" y="419" width="31" height="31" stroke="white" stroke-width="0.5"/>
<rect x="109" y="419" width="31" height="31" stroke="white" stroke-width="0.5"/>
<rect x="233" y="419" width="31" height="31" stroke="white" stroke-width="0.5"/>
<rect x="16" y="171" width="31" height="31" stroke="white" stroke-width="0.5"/>
<rect x="264" y="171" width="31" height="31" stroke="white" stroke-width="0.5"/>
<rect x="140" y="171" width="31" height="31" stroke="white" stroke-width="0.5"/>
<rect x="78" y="171" width="31" height="31" stroke="white" stroke-width="0.5"/>
<rect x="202" y="171" width="31" height="31" stroke="white" stroke-width="0.5"/>
<rect x="47" y="171" width="31" height="31" stroke="white" stroke-width="0.5"/>
<rect x="295" y="171" width="31" height="31" stroke="white" stroke-width="0.5"/>
<rect x="171" y="171" width="31" height="31" stroke="white" stroke-width="0.5"/>
<rect x="109" y="171" width="31" height="31" stroke="white" stroke-width="0.5"/>
<rect x="233" y="171" width="31" height="31" stroke="white" stroke-width="0.5"/>
<rect x="16" y="109" width="31" height="31" stroke="white" stroke-width="0.5"/>
<rect x="264" y="109" width="31" height="31" stroke="white" stroke-width="0.5"/>
<rect x="140" y="109" width="31" height="31" stroke="white" stroke-width="0.5"/>
<rect x="78" y="109" width="31" height="31" stroke="white" stroke-width="0.5"/>
<rect x="202" y="109" width="31" height="31" stroke="white" stroke-width="0.5"/>
<rect x="47" y="109" width="31" height="31" stroke="white" stroke-width="0.5"/>
<rect x="295" y="109" width="31" height="31" stroke="white" stroke-width="0.5"/>
<rect x="171" y="109" width="31" height="31" stroke="white" stroke-width="0.5"/>
<rect x="109" y="109" width="31" height="31" stroke="white" stroke-width="0.5"/>
<rect x="233" y="109" width="31" height="31" stroke="white" stroke-width="0.5"/>
<rect x="16" y="233" width="31" height="31" stroke="white" stroke-width="0.5"/>
<rect x="16" y="295" width="31" height="31" stroke="white" stroke-width="0.5"/>
<rect x="16" y="357" width="31" height="31" stroke="white" stroke-width="0.5"/>
<rect x="264" y="233" width="31" height="31" stroke="white" stroke-width="0.5"/>
<rect x="264" y="295" width="31" height="31" stroke="white" stroke-width="0.5"/>
<rect x="264" y="357" width="31" height="31" stroke="white" stroke-width="0.5"/>
<rect x="140" y="233" width="31" height="31" stroke="white" stroke-width="0.5"/>
<rect x="140" y="295" width="31" height="31" stroke="white" stroke-width="0.5"/>
<rect x="140" y="357" width="31" height="31" stroke="white" stroke-width="0.5"/>
<rect x="78" y="233" width="31" height="31" stroke="white" stroke-width="0.5"/>
<rect x="78" y="295" width="31" height="31" stroke="white" stroke-width="0.5"/>
<rect x="78" y="357" width="31" height="31" stroke="white" stroke-width="0.5"/>
<rect x="202" y="233" width="31" height="31" stroke="white" stroke-width="0.5"/>
<rect x="202" y="295" width="31" height="31" stroke="white" stroke-width="0.5"/>
<rect x="202" y="357" width="31" height="31" stroke="white" stroke-width="0.5"/>
<rect x="47" y="233" width="31" height="31" stroke="white" stroke-width="0.5"/>
<rect x="47" y="295" width="31" height="31" stroke="white" stroke-width="0.5"/>
<rect x="47" y="357" width="31" height="31" stroke="white" stroke-width="0.5"/>
<rect x="295" y="233" width="31" height="31" stroke="white" stroke-width="0.5"/>
<rect x="295" y="295" width="31" height="31" stroke="white" stroke-width="0.5"/>
<rect x="295" y="357" width="31" height="31" stroke="white" stroke-width="0.5"/>
<rect x="171" y="233" width="31" height="31" stroke="white" stroke-width="0.5"/>
<rect x="171" y="295" width="31" height="31" stroke="white" stroke-width="0.5"/>
<rect x="171" y="357" width="31" height="31" stroke="white" stroke-width="0.5"/>
<rect x="109" y="233" width="31" height="31" stroke="white" stroke-width="0.5"/>
<rect x="109" y="295" width="31" height="31" stroke="white" stroke-width="0.5"/>
<rect x="109" y="357" width="31" height="31" stroke="white" stroke-width="0.5"/>
<rect x="233" y="233" width="31" height="31" stroke="white" stroke-width="0.5"/>
<rect x="233" y="295" width="31" height="31" stroke="white" stroke-width="0.5"/>
<rect x="233" y="357" width="31" height="31" stroke="white" stroke-width="0.5"/>
</g>
<path d="M310 357C310 339.879 317.163 326 326 326" stroke="#C4A847"/>
<path d="M310 357C310 322.758 299.703 295 287 295C274.297 295 264 322.758 264 357" stroke="#C4A847"/>
<path d="M264 357C264 305.638 250.121 264 233 264C215.879 264 202 305.638 202 357" stroke="#C4A847"/>
<path d="M202 357C202 271.396 174.242 202 140 202C105.758 202 78 271.396 78 357" stroke="#C4A847"/>
<path d="M78 357C78 220.033 49.7939 109 15 109" stroke="#C4A847"/>
<circle cx="176" cy="233" r="21" fill="#C4A847"/>
<circle cx="248.5" cy="62.5" r="20.25" stroke="black" stroke-width="0.5"/>
<path opacity="0.6" fill-rule="evenodd" clip-rule="evenodd" d="M178 413H174V415H172V417H170V421H172V423H174V425H178V423H180V421H182V417H180V415H178V413Z" fill="#D7C172"/>
</svg>
