<svg width="98" height="98" viewBox="0 0 98 98" fill="none" xmlns="http://www.w3.org/2000/svg">
<path d="M1 65.3809H33.1905V97.5713H9C4.58172 97.5713 1 93.9896 1 89.5713V65.3809Z" stroke="#D1D5DB" stroke-width="0.5"/>
<path d="M65.3809 65.3809H97.5713V89.5713C97.5713 93.9896 93.9896 97.5713 89.5713 97.5713H65.3809V65.3809Z" stroke="#D1D5DB" stroke-width="0.5"/>
<rect x="33.1904" y="65.3809" width="32.1905" height="32.1905" stroke="#D1D5DB" stroke-width="0.5"/>
<rect x="1" y="33.1904" width="32.1905" height="32.1905" stroke="#D1D5DB" stroke-width="0.5"/>
<path d="M1 9C1 4.58172 4.58172 1 9 1H33.1905V33.1905H1V9Z" stroke="#D1D5DB" stroke-width="0.5"/>
<rect x="65.3809" y="33.1904" width="32.1905" height="32.1905" stroke="#D1D5DB" stroke-width="0.5"/>
<path d="M65.3809 1H89.5713C93.9896 1 97.5713 4.58172 97.5713 9V33.1905H65.3809V1Z" stroke="#D1D5DB" stroke-width="0.5"/>
<rect x="33.1904" y="33.1904" width="32.1905" height="32.1905" stroke="#D1D5DB" stroke-width="0.5"/>
<rect x="33.1904" y="1" width="32.1905" height="32.1905" stroke="#D1D5DB" stroke-width="0.5"/>
<path d="M28.5 38.0005L17 49.5005L28.5 61.0005" stroke="#A1A1AA" stroke-width="4" stroke-linecap="round" stroke-linejoin="round"/>
<path d="M70 61.0005L81.5 49.5005L70 38.0005" stroke="#A1A1AA" stroke-width="4" stroke-linecap="round" stroke-linejoin="round"/>
<path d="M56.9993 30.0001L39.9993 70.0001" stroke="#A1A1AA" stroke-width="4" stroke-linecap="round"/>
</svg>
