<svg width="708" height="418" viewBox="0 0 708 418" fill="none" xmlns="http://www.w3.org/2000/svg">
<path d="M0 24C0 10.7452 10.7452 0 24 0H684C697.255 0 708 10.7452 708 24V394C708 407.255 697.255 418 684 418H24C10.7452 418 0 407.255 0 394V24Z" fill="#F6F6EF"/>
<rect x="16" y="273.524" width="32.1905" height="32.1905" stroke="#D1D5DB" stroke-width="0.5"/>
<rect x="273.523" y="273.524" width="32.1905" height="32.1905" stroke="#D1D5DB" stroke-width="0.5"/>
<rect x="144.762" y="273.524" width="32.1905" height="32.1905" stroke="#D1D5DB" stroke-width="0.5"/>
<rect x="402.285" y="273.524" width="32.1905" height="32.1905" stroke="#D1D5DB" stroke-width="0.5"/>
<rect x="80.3809" y="273.524" width="32.1905" height="32.1905" stroke="#D1D5DB" stroke-width="0.5"/>
<rect x="337.904" y="273.524" width="32.1905" height="32.1905" stroke="#D1D5DB" stroke-width="0.5"/>
<rect x="209.143" y="273.524" width="32.1905" height="32.1905" stroke="#D1D5DB" stroke-width="0.5"/>
<rect x="466.666" y="273.524" width="32.1905" height="32.1905" stroke="#D1D5DB" stroke-width="0.5"/>
<rect x="563.238" y="273.524" width="32.1905" height="32.1905" stroke="#D1D5DB" stroke-width="0.5"/>
<rect x="627.619" y="273.524" width="32.1905" height="32.1905" stroke="#D1D5DB" stroke-width="0.5"/>
<rect x="48.1904" y="273.524" width="32.1905" height="32.1905" stroke="#D1D5DB" stroke-width="0.5"/>
<rect x="305.715" y="273.524" width="32.1905" height="32.1905" stroke="#D1D5DB" stroke-width="0.5"/>
<rect x="176.952" y="273.524" width="32.1905" height="32.1905" stroke="#D1D5DB" stroke-width="0.5"/>
<rect x="434.477" y="273.524" width="32.1905" height="32.1905" stroke="#D1D5DB" stroke-width="0.5"/>
<rect x="531.048" y="273.524" width="32.1905" height="32.1905" stroke="#D1D5DB" stroke-width="0.5"/>
<rect x="112.571" y="273.524" width="32.1905" height="32.1905" stroke="#D1D5DB" stroke-width="0.5"/>
<rect x="370.096" y="273.524" width="32.1905" height="32.1905" stroke="#D1D5DB" stroke-width="0.5"/>
<rect x="241.334" y="273.524" width="32.1905" height="32.1905" stroke="#D1D5DB" stroke-width="0.5"/>
<rect x="498.857" y="273.524" width="32.1905" height="32.1905" stroke="#D1D5DB" stroke-width="0.5"/>
<rect x="595.429" y="273.524" width="32.1905" height="32.1905" stroke="#D1D5DB" stroke-width="0.5"/>
<rect x="659.81" y="273.524" width="32.1905" height="32.1905" stroke="#D1D5DB" stroke-width="0.5"/>
<rect x="16" y="144.762" width="32.1905" height="32.1905" stroke="#D1D5DB" stroke-width="0.5"/>
<rect x="273.523" y="144.762" width="32.1905" height="32.1905" stroke="#D1D5DB" stroke-width="0.5"/>
<rect x="144.762" y="144.762" width="32.1905" height="32.1905" stroke="#D1D5DB" stroke-width="0.5"/>
<rect x="402.285" y="144.762" width="32.1905" height="32.1905" stroke="#D1D5DB" stroke-width="0.5"/>
<rect x="80.3809" y="144.762" width="32.1905" height="32.1905" stroke="#D1D5DB" stroke-width="0.5"/>
<rect x="337.904" y="144.762" width="32.1905" height="32.1905" stroke="#D1D5DB" stroke-width="0.5"/>
<rect x="209.143" y="144.762" width="32.1905" height="32.1905" stroke="#D1D5DB" stroke-width="0.5"/>
<rect x="466.666" y="144.762" width="32.1905" height="32.1905" stroke="#D1D5DB" stroke-width="0.5"/>
<rect x="563.238" y="144.762" width="32.1905" height="32.1905" stroke="#D1D5DB" stroke-width="0.5"/>
<rect x="627.619" y="144.762" width="32.1905" height="32.1905" stroke="#D1D5DB" stroke-width="0.5"/>
<rect x="48.1904" y="144.762" width="32.1905" height="32.1905" stroke="#D1D5DB" stroke-width="0.5"/>
<rect x="305.715" y="144.762" width="32.1905" height="32.1905" stroke="#D1D5DB" stroke-width="0.5"/>
<rect x="176.952" y="144.762" width="32.1905" height="32.1905" stroke="#D1D5DB" stroke-width="0.5"/>
<rect x="434.477" y="144.762" width="32.1905" height="32.1905" stroke="#D1D5DB" stroke-width="0.5"/>
<rect x="531.048" y="144.762" width="32.1905" height="32.1905" stroke="#D1D5DB" stroke-width="0.5"/>
<rect x="112.571" y="144.762" width="32.1905" height="32.1905" stroke="#D1D5DB" stroke-width="0.5"/>
<rect x="370.096" y="144.762" width="32.1905" height="32.1905" stroke="#D1D5DB" stroke-width="0.5"/>
<rect x="241.334" y="144.762" width="32.1905" height="32.1905" stroke="#D1D5DB" stroke-width="0.5"/>
<rect x="498.857" y="144.762" width="32.1905" height="32.1905" stroke="#D1D5DB" stroke-width="0.5"/>
<rect x="595.429" y="144.762" width="32.1905" height="32.1905" stroke="#D1D5DB" stroke-width="0.5"/>
<rect x="659.81" y="144.762" width="32.1905" height="32.1905" stroke="#D1D5DB" stroke-width="0.5"/>
<path d="M16 370H48.1905V402.19H24C19.5817 402.19 16 398.609 16 394.19V370Z" stroke="#D1D5DB" stroke-width="0.5"/>
<rect x="273.523" y="370" width="32.1905" height="32.1905" stroke="#D1D5DB" stroke-width="0.5"/>
<rect x="144.762" y="370" width="32.1905" height="32.1905" stroke="#D1D5DB" stroke-width="0.5"/>
<rect x="402.285" y="370" width="32.1905" height="32.1905" stroke="#D1D5DB" stroke-width="0.5"/>
<rect x="80.3809" y="370" width="32.1905" height="32.1905" stroke="#D1D5DB" stroke-width="0.5"/>
<rect x="337.904" y="370" width="32.1905" height="32.1905" stroke="#D1D5DB" stroke-width="0.5"/>
<rect x="209.143" y="370" width="32.1905" height="32.1905" stroke="#D1D5DB" stroke-width="0.5"/>
<rect x="466.666" y="370" width="32.1905" height="32.1905" stroke="#D1D5DB" stroke-width="0.5"/>
<rect x="563.237" y="370" width="32.1905" height="32.1905" stroke="#D1D5DB" stroke-width="0.5"/>
<rect x="627.618" y="370" width="32.1905" height="32.1905" stroke="#D1D5DB" stroke-width="0.5"/>
<rect x="48.1904" y="370" width="32.1905" height="32.1905" stroke="#D1D5DB" stroke-width="0.5"/>
<rect x="305.714" y="370" width="32.1905" height="32.1905" stroke="#D1D5DB" stroke-width="0.5"/>
<rect x="176.952" y="370" width="32.1905" height="32.1905" stroke="#D1D5DB" stroke-width="0.5"/>
<rect x="434.476" y="370" width="32.1905" height="32.1905" stroke="#D1D5DB" stroke-width="0.5"/>
<rect x="531.047" y="370" width="32.1905" height="32.1905" stroke="#D1D5DB" stroke-width="0.5"/>
<rect x="112.571" y="370" width="32.1905" height="32.1905" stroke="#D1D5DB" stroke-width="0.5"/>
<rect x="370.095" y="370" width="32.1905" height="32.1905" stroke="#D1D5DB" stroke-width="0.5"/>
<rect x="241.333" y="370" width="32.1905" height="32.1905" stroke="#D1D5DB" stroke-width="0.5"/>
<rect x="498.856" y="370" width="32.1905" height="32.1905" stroke="#D1D5DB" stroke-width="0.5"/>
<rect x="595.428" y="370" width="32.1905" height="32.1905" stroke="#D1D5DB" stroke-width="0.5"/>
<path d="M659.809 370H691.999V394.19C691.999 398.609 688.417 402.19 683.999 402.19H659.809V370Z" stroke="#D1D5DB" stroke-width="0.5"/>
<rect x="16" y="80.3809" width="32.1905" height="32.1905" stroke="#D1D5DB" stroke-width="0.5"/>
<rect x="273.523" y="80.3809" width="32.1905" height="32.1905" stroke="#D1D5DB" stroke-width="0.5"/>
<rect x="144.762" y="80.3809" width="32.1905" height="32.1905" stroke="#D1D5DB" stroke-width="0.5"/>
<rect x="402.285" y="80.3809" width="32.1905" height="32.1905" stroke="#D1D5DB" stroke-width="0.5"/>
<rect x="80.3809" y="80.3809" width="32.1905" height="32.1905" stroke="#D1D5DB" stroke-width="0.5"/>
<rect x="337.904" y="80.3809" width="32.1905" height="32.1905" stroke="#D1D5DB" stroke-width="0.5"/>
<rect x="209.143" y="80.3809" width="32.1905" height="32.1905" stroke="#D1D5DB" stroke-width="0.5"/>
<rect x="466.666" y="80.3809" width="32.1905" height="32.1905" stroke="#D1D5DB" stroke-width="0.5"/>
<rect x="563.238" y="80.3809" width="32.1905" height="32.1905" stroke="#D1D5DB" stroke-width="0.5"/>
<rect x="627.619" y="80.3809" width="32.1905" height="32.1905" stroke="#D1D5DB" stroke-width="0.5"/>
<rect x="48.1904" y="80.3809" width="32.1905" height="32.1905" stroke="#D1D5DB" stroke-width="0.5"/>
<rect x="305.715" y="80.3809" width="32.1905" height="32.1905" stroke="#D1D5DB" stroke-width="0.5"/>
<rect x="176.952" y="80.3809" width="32.1905" height="32.1905" stroke="#D1D5DB" stroke-width="0.5"/>
<rect x="434.477" y="80.3809" width="32.1905" height="32.1905" stroke="#D1D5DB" stroke-width="0.5"/>
<rect x="531.048" y="80.3809" width="32.1905" height="32.1905" stroke="#D1D5DB" stroke-width="0.5"/>
<rect x="112.571" y="80.3809" width="32.1905" height="32.1905" stroke="#D1D5DB" stroke-width="0.5"/>
<rect x="370.096" y="80.3809" width="32.1905" height="32.1905" stroke="#D1D5DB" stroke-width="0.5"/>
<rect x="241.334" y="80.3809" width="32.1905" height="32.1905" stroke="#D1D5DB" stroke-width="0.5"/>
<rect x="498.857" y="80.3809" width="32.1905" height="32.1905" stroke="#D1D5DB" stroke-width="0.5"/>
<rect x="595.429" y="80.3809" width="32.1905" height="32.1905" stroke="#D1D5DB" stroke-width="0.5"/>
<rect x="659.81" y="80.3809" width="32.1905" height="32.1905" stroke="#D1D5DB" stroke-width="0.5"/>
<rect x="16" y="337.905" width="32.1905" height="32.1905" stroke="#D1D5DB" stroke-width="0.5"/>
<rect x="273.523" y="337.905" width="32.1905" height="32.1905" stroke="#D1D5DB" stroke-width="0.5"/>
<rect x="144.762" y="337.905" width="32.1905" height="32.1905" stroke="#D1D5DB" stroke-width="0.5"/>
<rect x="402.285" y="337.905" width="32.1905" height="32.1905" stroke="#D1D5DB" stroke-width="0.5"/>
<rect x="80.3809" y="337.905" width="32.1905" height="32.1905" stroke="#D1D5DB" stroke-width="0.5"/>
<rect x="337.904" y="337.905" width="32.1905" height="32.1905" stroke="#D1D5DB" stroke-width="0.5"/>
<rect x="209.143" y="337.905" width="32.1905" height="32.1905" stroke="#D1D5DB" stroke-width="0.5"/>
<rect x="466.666" y="337.905" width="32.1905" height="32.1905" stroke="#D1D5DB" stroke-width="0.5"/>
<rect x="563.238" y="337.905" width="32.1905" height="32.1905" stroke="#D1D5DB" stroke-width="0.5"/>
<rect x="627.619" y="337.905" width="32.1905" height="32.1905" stroke="#D1D5DB" stroke-width="0.5"/>
<rect x="48.1904" y="337.905" width="32.1905" height="32.1905" stroke="#D1D5DB" stroke-width="0.5"/>
<rect x="305.715" y="337.905" width="32.1905" height="32.1905" stroke="#D1D5DB" stroke-width="0.5"/>
<rect x="176.952" y="337.905" width="32.1905" height="32.1905" stroke="#D1D5DB" stroke-width="0.5"/>
<rect x="434.477" y="337.905" width="32.1905" height="32.1905" stroke="#D1D5DB" stroke-width="0.5"/>
<rect x="531.048" y="337.905" width="32.1905" height="32.1905" stroke="#D1D5DB" stroke-width="0.5"/>
<rect x="112.571" y="337.905" width="32.1905" height="32.1905" stroke="#D1D5DB" stroke-width="0.5"/>
<rect x="370.096" y="337.905" width="32.1905" height="32.1905" stroke="#D1D5DB" stroke-width="0.5"/>
<rect x="241.334" y="337.905" width="32.1905" height="32.1905" stroke="#D1D5DB" stroke-width="0.5"/>
<rect x="498.857" y="337.905" width="32.1905" height="32.1905" stroke="#D1D5DB" stroke-width="0.5"/>
<rect x="595.429" y="337.905" width="32.1905" height="32.1905" stroke="#D1D5DB" stroke-width="0.5"/>
<rect x="659.81" y="337.905" width="32.1905" height="32.1905" stroke="#D1D5DB" stroke-width="0.5"/>
<rect x="16" y="209.143" width="32.1905" height="32.1905" stroke="#D1D5DB" stroke-width="0.5"/>
<rect x="273.523" y="209.143" width="32.1905" height="32.1905" stroke="#D1D5DB" stroke-width="0.5"/>
<rect x="144.762" y="209.143" width="32.1905" height="32.1905" stroke="#D1D5DB" stroke-width="0.5"/>
<rect x="402.285" y="209.143" width="32.1905" height="32.1905" stroke="#D1D5DB" stroke-width="0.5"/>
<rect x="80.3809" y="209.143" width="32.1905" height="32.1905" stroke="#D1D5DB" stroke-width="0.5"/>
<rect x="337.904" y="209.143" width="32.1905" height="32.1905" stroke="#D1D5DB" stroke-width="0.5"/>
<rect x="209.143" y="209.143" width="32.1905" height="32.1905" stroke="#D1D5DB" stroke-width="0.5"/>
<rect x="466.666" y="209.143" width="32.1905" height="32.1905" stroke="#D1D5DB" stroke-width="0.5"/>
<rect x="563.238" y="209.143" width="32.1905" height="32.1905" stroke="#D1D5DB" stroke-width="0.5"/>
<rect x="627.619" y="209.143" width="32.1905" height="32.1905" stroke="#D1D5DB" stroke-width="0.5"/>
<rect x="48.1904" y="209.143" width="32.1905" height="32.1905" stroke="#D1D5DB" stroke-width="0.5"/>
<rect x="305.715" y="209.143" width="32.1905" height="32.1905" stroke="#D1D5DB" stroke-width="0.5"/>
<rect x="176.952" y="209.143" width="32.1905" height="32.1905" stroke="#D1D5DB" stroke-width="0.5"/>
<rect x="434.477" y="209.143" width="32.1905" height="32.1905" stroke="#D1D5DB" stroke-width="0.5"/>
<rect x="531.048" y="209.143" width="32.1905" height="32.1905" stroke="#D1D5DB" stroke-width="0.5"/>
<rect x="112.571" y="209.143" width="32.1905" height="32.1905" stroke="#D1D5DB" stroke-width="0.5"/>
<rect x="370.096" y="209.143" width="32.1905" height="32.1905" stroke="#D1D5DB" stroke-width="0.5"/>
<rect x="241.334" y="209.143" width="32.1905" height="32.1905" stroke="#D1D5DB" stroke-width="0.5"/>
<rect x="498.857" y="209.143" width="32.1905" height="32.1905" stroke="#D1D5DB" stroke-width="0.5"/>
<rect x="595.429" y="209.143" width="32.1905" height="32.1905" stroke="#D1D5DB" stroke-width="0.5"/>
<rect x="659.81" y="209.143" width="32.1905" height="32.1905" stroke="#D1D5DB" stroke-width="0.5"/>
<rect x="16" y="48.1904" width="32.1905" height="32.1905" stroke="#D1D5DB" stroke-width="0.5"/>
<path d="M16 24C16 19.5817 19.5817 16 24 16H48.1905V48.1905H16V24Z" stroke="#D1D5DB" stroke-width="0.5"/>
<rect x="273.523" y="48.1904" width="32.1905" height="32.1905" stroke="#D1D5DB" stroke-width="0.5"/>
<rect x="273.523" y="16" width="32.1905" height="32.1905" stroke="#D1D5DB" stroke-width="0.5"/>
<rect x="144.762" y="48.1904" width="32.1905" height="32.1905" stroke="#D1D5DB" stroke-width="0.5"/>
<rect x="144.762" y="16" width="32.1905" height="32.1905" stroke="#D1D5DB" stroke-width="0.5"/>
<rect x="402.285" y="48.1904" width="32.1905" height="32.1905" stroke="#D1D5DB" stroke-width="0.5"/>
<rect x="402.285" y="16" width="32.1905" height="32.1905" stroke="#D1D5DB" stroke-width="0.5"/>
<rect x="80.3809" y="48.1904" width="32.1905" height="32.1905" stroke="#D1D5DB" stroke-width="0.5"/>
<rect x="80.3809" y="16" width="32.1905" height="32.1905" stroke="#D1D5DB" stroke-width="0.5"/>
<rect x="337.904" y="48.1904" width="32.1905" height="32.1905" stroke="#D1D5DB" stroke-width="0.5"/>
<rect x="337.904" y="16" width="32.1905" height="32.1905" stroke="#D1D5DB" stroke-width="0.5"/>
<rect x="209.143" y="48.1904" width="32.1905" height="32.1905" stroke="#D1D5DB" stroke-width="0.5"/>
<rect x="209.143" y="16" width="32.1905" height="32.1905" stroke="#D1D5DB" stroke-width="0.5"/>
<rect x="466.666" y="48.1904" width="32.1905" height="32.1905" stroke="#D1D5DB" stroke-width="0.5"/>
<rect x="466.666" y="16" width="32.1905" height="32.1905" stroke="#D1D5DB" stroke-width="0.5"/>
<rect x="563.238" y="48.1904" width="32.1905" height="32.1905" stroke="#D1D5DB" stroke-width="0.5"/>
<rect x="563.238" y="16" width="32.1905" height="32.1905" stroke="#D1D5DB" stroke-width="0.5"/>
<rect x="627.619" y="48.1904" width="32.1905" height="32.1905" stroke="#D1D5DB" stroke-width="0.5"/>
<rect x="627.619" y="16" width="32.1905" height="32.1905" stroke="#D1D5DB" stroke-width="0.5"/>
<rect x="48.1904" y="48.1904" width="32.1905" height="32.1905" stroke="#D1D5DB" stroke-width="0.5"/>
<rect x="48.1904" y="16" width="32.1905" height="32.1905" stroke="#D1D5DB" stroke-width="0.5"/>
<rect x="305.715" y="48.1904" width="32.1905" height="32.1905" stroke="#D1D5DB" stroke-width="0.5"/>
<rect x="305.715" y="16" width="32.1905" height="32.1905" stroke="#D1D5DB" stroke-width="0.5"/>
<rect x="176.952" y="48.1904" width="32.1905" height="32.1905" stroke="#D1D5DB" stroke-width="0.5"/>
<rect x="176.952" y="16" width="32.1905" height="32.1905" stroke="#D1D5DB" stroke-width="0.5"/>
<rect x="434.477" y="48.1904" width="32.1905" height="32.1905" stroke="#D1D5DB" stroke-width="0.5"/>
<rect x="434.477" y="16" width="32.1905" height="32.1905" stroke="#D1D5DB" stroke-width="0.5"/>
<rect x="531.048" y="48.1904" width="32.1905" height="32.1905" stroke="#D1D5DB" stroke-width="0.5"/>
<rect x="531.048" y="16" width="32.1905" height="32.1905" stroke="#D1D5DB" stroke-width="0.5"/>
<rect x="112.571" y="48.1904" width="32.1905" height="32.1905" stroke="#D1D5DB" stroke-width="0.5"/>
<rect x="112.571" y="16" width="32.1905" height="32.1905" stroke="#D1D5DB" stroke-width="0.5"/>
<rect x="370.096" y="48.1904" width="32.1905" height="32.1905" stroke="#D1D5DB" stroke-width="0.5"/>
<rect x="370.096" y="16" width="32.1905" height="32.1905" stroke="#D1D5DB" stroke-width="0.5"/>
<rect x="241.334" y="48.1904" width="32.1905" height="32.1905" stroke="#D1D5DB" stroke-width="0.5"/>
<rect x="241.334" y="16" width="32.1905" height="32.1905" stroke="#D1D5DB" stroke-width="0.5"/>
<rect x="498.857" y="48.1904" width="32.1905" height="32.1905" stroke="#D1D5DB" stroke-width="0.5"/>
<rect x="498.857" y="16" width="32.1905" height="32.1905" stroke="#D1D5DB" stroke-width="0.5"/>
<rect x="595.429" y="48.1904" width="32.1905" height="32.1905" stroke="#D1D5DB" stroke-width="0.5"/>
<rect x="595.429" y="16" width="32.1905" height="32.1905" stroke="#D1D5DB" stroke-width="0.5"/>
<rect x="659.81" y="48.1904" width="32.1905" height="32.1905" stroke="#D1D5DB" stroke-width="0.5"/>
<path d="M659.81 16H684C688.418 16 692 19.5817 692 24V48.1905H659.81V16Z" stroke="#D1D5DB" stroke-width="0.5"/>
<rect x="16" y="305.714" width="32.1905" height="32.1905" stroke="#D1D5DB" stroke-width="0.5"/>
<rect x="273.523" y="305.714" width="32.1905" height="32.1905" stroke="#D1D5DB" stroke-width="0.5"/>
<rect x="144.762" y="305.714" width="32.1905" height="32.1905" stroke="#D1D5DB" stroke-width="0.5"/>
<rect x="402.285" y="305.714" width="32.1905" height="32.1905" stroke="#D1D5DB" stroke-width="0.5"/>
<rect x="80.3809" y="305.714" width="32.1905" height="32.1905" stroke="#D1D5DB" stroke-width="0.5"/>
<rect x="337.904" y="305.714" width="32.1905" height="32.1905" stroke="#D1D5DB" stroke-width="0.5"/>
<rect x="209.143" y="305.714" width="32.1905" height="32.1905" stroke="#D1D5DB" stroke-width="0.5"/>
<rect x="466.666" y="305.714" width="32.1905" height="32.1905" stroke="#D1D5DB" stroke-width="0.5"/>
<rect x="563.238" y="305.714" width="32.1905" height="32.1905" stroke="#D1D5DB" stroke-width="0.5"/>
<rect x="627.619" y="305.714" width="32.1905" height="32.1905" stroke="#D1D5DB" stroke-width="0.5"/>
<rect x="48.1904" y="305.714" width="32.1905" height="32.1905" stroke="#D1D5DB" stroke-width="0.5"/>
<rect x="305.715" y="305.714" width="32.1905" height="32.1905" stroke="#D1D5DB" stroke-width="0.5"/>
<rect x="176.952" y="305.714" width="32.1905" height="32.1905" stroke="#D1D5DB" stroke-width="0.5"/>
<rect x="434.477" y="305.714" width="32.1905" height="32.1905" stroke="#D1D5DB" stroke-width="0.5"/>
<rect x="531.048" y="305.714" width="32.1905" height="32.1905" stroke="#D1D5DB" stroke-width="0.5"/>
<rect x="112.571" y="305.714" width="32.1905" height="32.1905" stroke="#D1D5DB" stroke-width="0.5"/>
<rect x="370.096" y="305.714" width="32.1905" height="32.1905" stroke="#D1D5DB" stroke-width="0.5"/>
<rect x="241.334" y="305.714" width="32.1905" height="32.1905" stroke="#D1D5DB" stroke-width="0.5"/>
<rect x="498.857" y="305.714" width="32.1905" height="32.1905" stroke="#D1D5DB" stroke-width="0.5"/>
<rect x="595.429" y="305.714" width="32.1905" height="32.1905" stroke="#D1D5DB" stroke-width="0.5"/>
<rect x="659.81" y="305.714" width="32.1905" height="32.1905" stroke="#D1D5DB" stroke-width="0.5"/>
<rect x="16" y="176.952" width="32.1905" height="32.1905" stroke="#D1D5DB" stroke-width="0.5"/>
<rect x="273.523" y="176.952" width="32.1905" height="32.1905" stroke="#D1D5DB" stroke-width="0.5"/>
<rect x="144.762" y="176.952" width="32.1905" height="32.1905" stroke="#D1D5DB" stroke-width="0.5"/>
<rect x="402.285" y="176.952" width="32.1905" height="32.1905" stroke="#D1D5DB" stroke-width="0.5"/>
<rect x="80.3809" y="176.952" width="32.1905" height="32.1905" stroke="#D1D5DB" stroke-width="0.5"/>
<rect x="337.904" y="176.952" width="32.1905" height="32.1905" stroke="#D1D5DB" stroke-width="0.5"/>
<rect x="209.143" y="176.952" width="32.1905" height="32.1905" stroke="#D1D5DB" stroke-width="0.5"/>
<rect x="466.666" y="176.952" width="32.1905" height="32.1905" stroke="#D1D5DB" stroke-width="0.5"/>
<rect x="563.238" y="176.952" width="32.1905" height="32.1905" stroke="#D1D5DB" stroke-width="0.5"/>
<rect x="627.619" y="176.952" width="32.1905" height="32.1905" stroke="#D1D5DB" stroke-width="0.5"/>
<rect x="48.1904" y="176.952" width="32.1905" height="32.1905" stroke="#D1D5DB" stroke-width="0.5"/>
<rect x="305.715" y="176.952" width="32.1905" height="32.1905" stroke="#D1D5DB" stroke-width="0.5"/>
<rect x="176.952" y="176.952" width="32.1905" height="32.1905" stroke="#D1D5DB" stroke-width="0.5"/>
<rect x="434.477" y="176.952" width="32.1905" height="32.1905" stroke="#D1D5DB" stroke-width="0.5"/>
<rect x="531.048" y="176.952" width="32.1905" height="32.1905" stroke="#D1D5DB" stroke-width="0.5"/>
<rect x="112.571" y="176.952" width="32.1905" height="32.1905" stroke="#D1D5DB" stroke-width="0.5"/>
<rect x="370.096" y="176.952" width="32.1905" height="32.1905" stroke="#D1D5DB" stroke-width="0.5"/>
<rect x="241.334" y="176.952" width="32.1905" height="32.1905" stroke="#D1D5DB" stroke-width="0.5"/>
<rect x="498.857" y="176.952" width="32.1905" height="32.1905" stroke="#D1D5DB" stroke-width="0.5"/>
<rect x="595.429" y="176.952" width="32.1905" height="32.1905" stroke="#D1D5DB" stroke-width="0.5"/>
<rect x="659.81" y="176.952" width="32.1905" height="32.1905" stroke="#D1D5DB" stroke-width="0.5"/>
<rect x="16" y="112.571" width="32.1905" height="32.1905" stroke="#D1D5DB" stroke-width="0.5"/>
<rect x="273.523" y="112.571" width="32.1905" height="32.1905" stroke="#D1D5DB" stroke-width="0.5"/>
<rect x="144.762" y="112.571" width="32.1905" height="32.1905" stroke="#D1D5DB" stroke-width="0.5"/>
<rect x="402.285" y="112.571" width="32.1905" height="32.1905" stroke="#D1D5DB" stroke-width="0.5"/>
<rect x="80.3809" y="112.571" width="32.1905" height="32.1905" stroke="#D1D5DB" stroke-width="0.5"/>
<rect x="337.904" y="112.571" width="32.1905" height="32.1905" stroke="#D1D5DB" stroke-width="0.5"/>
<rect x="209.143" y="112.571" width="32.1905" height="32.1905" stroke="#D1D5DB" stroke-width="0.5"/>
<rect x="466.666" y="112.571" width="32.1905" height="32.1905" stroke="#D1D5DB" stroke-width="0.5"/>
<rect x="563.238" y="112.571" width="32.1905" height="32.1905" stroke="#D1D5DB" stroke-width="0.5"/>
<rect x="627.619" y="112.571" width="32.1905" height="32.1905" stroke="#D1D5DB" stroke-width="0.5"/>
<rect x="48.1904" y="112.571" width="32.1905" height="32.1905" stroke="#D1D5DB" stroke-width="0.5"/>
<rect x="305.715" y="112.571" width="32.1905" height="32.1905" stroke="#D1D5DB" stroke-width="0.5"/>
<rect x="176.952" y="112.571" width="32.1905" height="32.1905" stroke="#D1D5DB" stroke-width="0.5"/>
<rect x="434.477" y="112.571" width="32.1905" height="32.1905" stroke="#D1D5DB" stroke-width="0.5"/>
<rect x="531.048" y="112.571" width="32.1905" height="32.1905" stroke="#D1D5DB" stroke-width="0.5"/>
<rect x="112.571" y="112.571" width="32.1905" height="32.1905" stroke="#D1D5DB" stroke-width="0.5"/>
<rect x="370.096" y="112.571" width="32.1905" height="32.1905" stroke="#D1D5DB" stroke-width="0.5"/>
<rect x="241.334" y="112.571" width="32.1905" height="32.1905" stroke="#D1D5DB" stroke-width="0.5"/>
<rect x="498.857" y="112.571" width="32.1905" height="32.1905" stroke="#D1D5DB" stroke-width="0.5"/>
<rect x="595.429" y="112.571" width="32.1905" height="32.1905" stroke="#D1D5DB" stroke-width="0.5"/>
<rect x="659.81" y="112.571" width="32.1905" height="32.1905" stroke="#D1D5DB" stroke-width="0.5"/>
<rect x="16" y="241.333" width="32.1905" height="32.1905" stroke="#D1D5DB" stroke-width="0.5"/>
<rect x="273.523" y="241.333" width="32.1905" height="32.1905" stroke="#D1D5DB" stroke-width="0.5"/>
<rect x="144.762" y="241.333" width="32.1905" height="32.1905" stroke="#D1D5DB" stroke-width="0.5"/>
<rect x="402.285" y="241.333" width="32.1905" height="32.1905" stroke="#D1D5DB" stroke-width="0.5"/>
<rect x="80.3809" y="241.333" width="32.1905" height="32.1905" stroke="#D1D5DB" stroke-width="0.5"/>
<rect x="337.904" y="241.333" width="32.1905" height="32.1905" stroke="#D1D5DB" stroke-width="0.5"/>
<rect x="209.143" y="241.333" width="32.1905" height="32.1905" stroke="#D1D5DB" stroke-width="0.5"/>
<rect x="466.666" y="241.333" width="32.1905" height="32.1905" stroke="#D1D5DB" stroke-width="0.5"/>
<rect x="563.238" y="241.333" width="32.1905" height="32.1905" stroke="#D1D5DB" stroke-width="0.5"/>
<rect x="627.619" y="241.333" width="32.1905" height="32.1905" stroke="#D1D5DB" stroke-width="0.5"/>
<rect x="48.1904" y="241.333" width="32.1905" height="32.1905" stroke="#D1D5DB" stroke-width="0.5"/>
<rect x="305.715" y="241.333" width="32.1905" height="32.1905" stroke="#D1D5DB" stroke-width="0.5"/>
<rect x="176.952" y="241.333" width="32.1905" height="32.1905" stroke="#D1D5DB" stroke-width="0.5"/>
<rect x="434.477" y="241.333" width="32.1905" height="32.1905" stroke="#D1D5DB" stroke-width="0.5"/>
<rect x="531.048" y="241.333" width="32.1905" height="32.1905" stroke="#D1D5DB" stroke-width="0.5"/>
<rect x="112.571" y="241.333" width="32.1905" height="32.1905" stroke="#D1D5DB" stroke-width="0.5"/>
<rect x="370.096" y="241.333" width="32.1905" height="32.1905" stroke="#D1D5DB" stroke-width="0.5"/>
<rect x="241.334" y="241.333" width="32.1905" height="32.1905" stroke="#D1D5DB" stroke-width="0.5"/>
<rect x="498.857" y="241.333" width="32.1905" height="32.1905" stroke="#D1D5DB" stroke-width="0.5"/>
<rect x="595.429" y="241.333" width="32.1905" height="32.1905" stroke="#D1D5DB" stroke-width="0.5"/>
<rect x="659.81" y="241.333" width="32.1905" height="32.1905" stroke="#D1D5DB" stroke-width="0.5"/>
<circle cx="48" cy="370" r="17" fill="#B84317"/>
<circle cx="274" cy="241" r="17" fill="#024F2F"/>
<circle cx="434" cy="145" r="17" fill="#A78306"/>
<circle cx="563" cy="80" r="17" fill="#2C566E"/>
<circle cx="660" cy="49" r="17" fill="#8E1C41"/>
<path d="M48 370C67.5 321.5 139.6 228.2 274 241" stroke="black" stroke-width="0.5" stroke-linecap="round"/>
<path d="M274 241C280.019 194.001 316 124.388 434 145" stroke="black" stroke-width="0.5" stroke-linecap="round"/>
<path d="M434 145C434 101 488.5 49 563 80.0001" stroke="black" stroke-width="0.5" stroke-linecap="round"/>
<path d="M563 80C570 48.0293 622.5 23 660 48.0293" stroke="black" stroke-width="0.5" stroke-linecap="round"/>
<path d="M44.3097 391.727V399H43.429V392.651H43.3864L41.6108 393.83V392.935L43.429 391.727H44.3097ZM46.5966 399.057C46.4214 399.057 46.2711 398.994 46.1456 398.869C46.0201 398.743 45.9574 398.593 45.9574 398.418C45.9574 398.242 46.0201 398.092 46.1456 397.967C46.2711 397.841 46.4214 397.778 46.5966 397.778C46.7718 397.778 46.9221 397.841 47.0476 397.967C47.1731 398.092 47.2358 398.242 47.2358 398.418C47.2358 398.534 47.2062 398.64 47.147 398.737C47.0902 398.834 47.0133 398.912 46.9162 398.972C46.8215 399.028 46.715 399.057 46.5966 399.057ZM50.8438 399.099C50.3087 399.099 49.853 398.954 49.4766 398.663C49.1001 398.369 48.8125 397.944 48.6136 397.388C48.4148 396.829 48.3153 396.154 48.3153 395.364C48.3153 394.578 48.4148 393.906 48.6136 393.35C48.8149 392.791 49.1037 392.365 49.4801 392.072C49.8589 391.776 50.3134 391.628 50.8438 391.628C51.3741 391.628 51.8274 391.776 52.2038 392.072C52.5826 392.365 52.8714 392.791 53.0703 393.35C53.2715 393.906 53.3722 394.578 53.3722 395.364C53.3722 396.154 53.2727 396.829 53.0739 397.388C52.875 397.944 52.5874 398.369 52.2109 398.663C51.8345 398.954 51.3788 399.099 50.8438 399.099ZM50.8438 398.318C51.3741 398.318 51.786 398.062 52.0795 397.551C52.3731 397.04 52.5199 396.311 52.5199 395.364C52.5199 394.734 52.4524 394.198 52.3175 393.755C52.1849 393.312 51.9931 392.975 51.7422 392.743C51.4936 392.511 51.1941 392.395 50.8438 392.395C50.3182 392.395 49.9074 392.654 49.6115 393.173C49.3156 393.689 49.1676 394.419 49.1676 395.364C49.1676 395.993 49.2339 396.528 49.3665 396.969C49.4991 397.409 49.6896 397.744 49.9382 397.974C50.1892 398.203 50.491 398.318 50.8438 398.318Z" fill="#18181B"/>
<path d="M266.753 270V269.361L269.153 266.733C269.435 266.425 269.667 266.158 269.849 265.93C270.032 265.701 270.167 265.485 270.254 265.284C270.344 265.08 270.389 264.867 270.389 264.645C270.389 264.389 270.328 264.168 270.205 263.981C270.084 263.794 269.918 263.649 269.707 263.548C269.497 263.446 269.26 263.395 268.997 263.395C268.718 263.395 268.474 263.453 268.266 263.569C268.06 263.683 267.9 263.842 267.786 264.048C267.675 264.254 267.619 264.496 267.619 264.773H266.781C266.781 264.347 266.879 263.973 267.076 263.651C267.272 263.329 267.54 263.078 267.879 262.898C268.219 262.718 268.602 262.628 269.026 262.628C269.452 262.628 269.829 262.718 270.158 262.898C270.487 263.078 270.746 263.32 270.933 263.626C271.12 263.931 271.213 264.271 271.213 264.645C271.213 264.912 271.165 265.174 271.067 265.43C270.973 265.683 270.807 265.966 270.57 266.278C270.336 266.589 270.01 266.967 269.594 267.415L267.96 269.162V269.219H271.341V270H266.753ZM273.433 270.057C273.257 270.057 273.107 269.994 272.982 269.869C272.856 269.743 272.793 269.593 272.793 269.418C272.793 269.242 272.856 269.092 272.982 268.967C273.107 268.841 273.257 268.778 273.433 268.778C273.608 268.778 273.758 268.841 273.884 268.967C274.009 269.092 274.072 269.242 274.072 269.418C274.072 269.534 274.042 269.64 273.983 269.737C273.926 269.834 273.849 269.912 273.752 269.972C273.657 270.028 273.551 270.057 273.433 270.057ZM277.68 270.099C277.145 270.099 276.689 269.954 276.312 269.663C275.936 269.369 275.648 268.944 275.45 268.388C275.251 267.829 275.151 267.154 275.151 266.364C275.151 265.578 275.251 264.906 275.45 264.35C275.651 263.791 275.94 263.365 276.316 263.072C276.695 262.776 277.149 262.628 277.68 262.628C278.21 262.628 278.663 262.776 279.04 263.072C279.419 263.365 279.707 263.791 279.906 264.35C280.107 264.906 280.208 265.578 280.208 266.364C280.208 267.154 280.109 267.829 279.91 268.388C279.711 268.944 279.423 269.369 279.047 269.663C278.67 269.954 278.215 270.099 277.68 270.099ZM277.68 269.318C278.21 269.318 278.622 269.062 278.915 268.551C279.209 268.04 279.356 267.311 279.356 266.364C279.356 265.734 279.288 265.198 279.153 264.755C279.021 264.312 278.829 263.975 278.578 263.743C278.33 263.511 278.03 263.395 277.68 263.395C277.154 263.395 276.743 263.654 276.447 264.173C276.152 264.689 276.004 265.419 276.004 266.364C276.004 266.993 276.07 267.528 276.202 267.969C276.335 268.409 276.526 268.744 276.774 268.974C277.025 269.203 277.327 269.318 277.68 269.318Z" fill="#18181B"/>
<path d="M429.21 174.099C428.741 174.099 428.324 174.019 427.957 173.858C427.592 173.697 427.302 173.473 427.087 173.187C426.874 172.898 426.758 172.563 426.739 172.182H427.634C427.652 172.416 427.733 172.619 427.875 172.789C428.017 172.957 428.203 173.087 428.433 173.18C428.662 173.272 428.917 173.318 429.196 173.318C429.509 173.318 429.786 173.264 430.027 173.155C430.268 173.046 430.458 172.894 430.595 172.7C430.732 172.506 430.801 172.281 430.801 172.026C430.801 171.758 430.735 171.522 430.602 171.319C430.47 171.113 430.276 170.952 430.02 170.836C429.764 170.72 429.452 170.662 429.082 170.662H428.5V169.881H429.082C429.371 169.881 429.625 169.829 429.842 169.724C430.063 169.62 430.234 169.473 430.357 169.284C430.483 169.095 430.545 168.872 430.545 168.616C430.545 168.37 430.491 168.156 430.382 167.974C430.273 167.791 430.119 167.649 429.92 167.548C429.724 167.446 429.492 167.395 429.224 167.395C428.973 167.395 428.737 167.441 428.514 167.533C428.294 167.623 428.114 167.755 427.974 167.928C427.835 168.098 427.759 168.304 427.747 168.545H426.895C426.909 168.164 427.024 167.83 427.239 167.544C427.455 167.255 427.737 167.03 428.085 166.869C428.435 166.708 428.82 166.628 429.239 166.628C429.688 166.628 430.074 166.719 430.396 166.901C430.718 167.081 430.966 167.319 431.138 167.615C431.311 167.911 431.398 168.231 431.398 168.574C431.398 168.983 431.29 169.333 431.075 169.621C430.862 169.91 430.571 170.11 430.205 170.222V170.278C430.664 170.354 431.022 170.549 431.281 170.864C431.539 171.177 431.668 171.564 431.668 172.026C431.668 172.421 431.56 172.776 431.344 173.091C431.131 173.403 430.84 173.65 430.471 173.83C430.102 174.009 429.681 174.099 429.21 174.099ZM433.52 174.057C433.345 174.057 433.195 173.994 433.069 173.869C432.944 173.743 432.881 173.593 432.881 173.418C432.881 173.242 432.944 173.092 433.069 172.967C433.195 172.841 433.345 172.778 433.52 172.778C433.696 172.778 433.846 172.841 433.971 172.967C434.097 173.092 434.16 173.242 434.16 173.418C434.16 173.534 434.13 173.64 434.071 173.737C434.014 173.834 433.937 173.912 433.84 173.972C433.745 174.028 433.639 174.057 433.52 174.057ZM437.768 174.099C437.233 174.099 436.777 173.954 436.4 173.663C436.024 173.369 435.736 172.944 435.537 172.388C435.339 171.829 435.239 171.154 435.239 170.364C435.239 169.578 435.339 168.906 435.537 168.35C435.739 167.791 436.028 167.365 436.404 167.072C436.783 166.776 437.237 166.628 437.768 166.628C438.298 166.628 438.751 166.776 439.128 167.072C439.506 167.365 439.795 167.791 439.994 168.35C440.195 168.906 440.296 169.578 440.296 170.364C440.296 171.154 440.197 171.829 439.998 172.388C439.799 172.944 439.511 173.369 439.135 173.663C438.758 173.954 438.303 174.099 437.768 174.099ZM437.768 173.318C438.298 173.318 438.71 173.062 439.003 172.551C439.297 172.04 439.444 171.311 439.444 170.364C439.444 169.734 439.376 169.198 439.241 168.755C439.109 168.312 438.917 167.975 438.666 167.743C438.417 167.511 438.118 167.395 437.768 167.395C437.242 167.395 436.831 167.654 436.535 168.173C436.239 168.689 436.091 169.419 436.091 170.364C436.091 170.993 436.158 171.528 436.29 171.969C436.423 172.409 436.613 172.744 436.862 172.974C437.113 173.203 437.415 173.318 437.768 173.318Z" fill="#18181B"/>
<path d="M555.582 108.509V107.784L558.778 102.727H559.304V103.849H558.949L556.534 107.67V107.727H560.838V108.509H555.582ZM559.006 110V108.288V107.951V102.727H559.844V110H559.006ZM562.452 110.057C562.277 110.057 562.127 109.994 562.001 109.869C561.876 109.743 561.813 109.593 561.813 109.418C561.813 109.242 561.876 109.092 562.001 108.967C562.127 108.841 562.277 108.778 562.452 108.778C562.627 108.778 562.778 108.841 562.903 108.967C563.029 109.092 563.091 109.242 563.091 109.418C563.091 109.534 563.062 109.64 563.002 109.737C562.946 109.834 562.869 109.912 562.772 109.972C562.677 110.028 562.57 110.057 562.452 110.057ZM566.699 110.099C566.164 110.099 565.708 109.954 565.332 109.663C564.956 109.369 564.668 108.944 564.469 108.388C564.27 107.829 564.171 107.154 564.171 106.364C564.171 105.578 564.27 104.906 564.469 104.35C564.67 103.791 564.959 103.365 565.336 103.072C565.714 102.776 566.169 102.628 566.699 102.628C567.23 102.628 567.683 102.776 568.059 103.072C568.438 103.365 568.727 103.791 568.926 104.35C569.127 104.906 569.228 105.578 569.228 106.364C569.228 107.154 569.128 107.829 568.929 108.388C568.73 108.944 568.443 109.369 568.066 109.663C567.69 109.954 567.234 110.099 566.699 110.099ZM566.699 109.318C567.23 109.318 567.641 109.062 567.935 108.551C568.229 108.04 568.375 107.311 568.375 106.364C568.375 105.734 568.308 105.198 568.173 104.755C568.04 104.312 567.849 103.975 567.598 103.743C567.349 103.511 567.05 103.395 566.699 103.395C566.174 103.395 565.763 103.654 565.467 104.173C565.171 104.689 565.023 105.419 565.023 106.364C565.023 106.993 565.089 107.528 565.222 107.969C565.355 108.409 565.545 108.744 565.794 108.974C566.045 109.203 566.346 109.318 566.699 109.318Z" fill="#18181B"/>
<path d="M655.026 77.0994C654.609 77.0994 654.234 77.0166 653.9 76.8509C653.566 76.6851 653.299 76.4579 653.097 76.169C652.896 75.8802 652.786 75.5511 652.767 75.1818H653.619C653.652 75.5109 653.802 75.7831 654.067 75.9986C654.334 76.2116 654.654 76.3182 655.026 76.3182C655.324 76.3182 655.589 76.2483 655.821 76.1087C656.055 75.969 656.239 75.7772 656.371 75.5334C656.506 75.2872 656.574 75.009 656.574 74.6989C656.574 74.3816 656.504 74.0987 656.364 73.8501C656.227 73.5992 656.038 73.4015 655.796 73.2571C655.555 73.1127 655.279 73.0393 654.969 73.0369C654.746 73.0346 654.518 73.0689 654.283 73.1399C654.049 73.2086 653.856 73.2973 653.705 73.4062L652.881 73.3068L653.321 69.7273H657.099V70.5085H654.06L653.804 72.6534H653.847C653.996 72.535 654.183 72.4368 654.408 72.3587C654.633 72.2805 654.867 72.2415 655.111 72.2415C655.556 72.2415 655.952 72.348 656.3 72.5611C656.651 72.7718 656.925 73.0606 657.124 73.4276C657.326 73.7945 657.426 74.2135 657.426 74.6847C657.426 75.1487 657.322 75.563 657.114 75.9276C656.908 76.2898 656.624 76.5762 656.261 76.7869C655.899 76.9953 655.487 77.0994 655.026 77.0994ZM659.188 77.0568C659.013 77.0568 658.863 76.9941 658.737 76.8686C658.612 76.7431 658.549 76.5928 658.549 76.4176C658.549 76.2424 658.612 76.0921 658.737 75.9666C658.863 75.8411 659.013 75.7784 659.188 75.7784C659.364 75.7784 659.514 75.8411 659.639 75.9666C659.765 76.0921 659.828 76.2424 659.828 76.4176C659.828 76.5336 659.798 76.6402 659.739 76.7372C659.682 76.8343 659.605 76.9124 659.508 76.9716C659.413 77.0284 659.307 77.0568 659.188 77.0568ZM663.436 77.0994C662.901 77.0994 662.445 76.9538 662.068 76.6626C661.692 76.3691 661.404 75.9441 661.205 75.3878C661.007 74.8291 660.907 74.1544 660.907 73.3636C660.907 72.5777 661.007 71.9065 661.205 71.3501C661.407 70.7914 661.695 70.3653 662.072 70.0717C662.451 69.7758 662.905 69.6278 663.436 69.6278C663.966 69.6278 664.419 69.7758 664.796 70.0717C665.174 70.3653 665.463 70.7914 665.662 71.3501C665.863 71.9065 665.964 72.5777 665.964 73.3636C665.964 74.1544 665.865 74.8291 665.666 75.3878C665.467 75.9441 665.179 76.3691 664.803 76.6626C664.426 76.9538 663.971 77.0994 663.436 77.0994ZM663.436 76.3182C663.966 76.3182 664.378 76.0625 664.671 75.5511C664.965 75.0398 665.112 74.3106 665.112 73.3636C665.112 72.7339 665.044 72.1977 664.909 71.755C664.777 71.3123 664.585 70.9749 664.334 70.7429C664.085 70.5109 663.786 70.3949 663.436 70.3949C662.91 70.3949 662.499 70.6541 662.203 71.1726C661.907 71.6887 661.759 72.419 661.759 73.3636C661.759 73.9934 661.826 74.5284 661.958 74.9688C662.091 75.4091 662.281 75.7441 662.53 75.9737C662.781 76.2034 663.083 76.3182 663.436 76.3182Z" fill="#18181B"/>
</svg>
