<svg width="228" height="228" viewBox="0 0 228 228" fill="none" xmlns="http://www.w3.org/2000/svg">
<path d="M1 90.4961H23.8735V113.214H1V90.4961Z" stroke="#D1D5DB" stroke-width="0.495614"/>
<path d="M1 113.21H23.8735V135.928H1V113.21Z" stroke="#D1D5DB" stroke-width="0.495614"/>
<path d="M1 135.979H23.8735V158.696H1V135.979Z" stroke="#D1D5DB" stroke-width="0.495614"/>
<path d="M1 158.747H23.8735V181.465H1V158.747Z" stroke="#D1D5DB" stroke-width="0.495614"/>
<path d="M1 181.514H23.8735V204.231H1V181.514Z" stroke="#D1D5DB" stroke-width="0.495614"/>
<path d="M1 204.282H23.8735V227H1V204.282Z" stroke="#D1D5DB" stroke-width="0.495614"/>
<rect x="181.908" y="90.4961" width="22.1804" height="22.7177" stroke="#D1D5DB" stroke-width="0.495614"/>
<rect x="181.908" y="113.21" width="22.1804" height="22.7177" stroke="#D1D5DB" stroke-width="0.495614"/>
<rect x="181.908" y="135.979" width="22.1804" height="22.7177" stroke="#D1D5DB" stroke-width="0.495614"/>
<rect x="181.908" y="158.747" width="22.1804" height="22.7177" stroke="#D1D5DB" stroke-width="0.495614"/>
<rect x="181.908" y="181.514" width="22.1804" height="22.7177" stroke="#D1D5DB" stroke-width="0.495614"/>
<rect x="181.908" y="204.282" width="22.1804" height="22.7177" stroke="#D1D5DB" stroke-width="0.495614"/>
<rect x="91.1074" y="90.4961" width="22.8735" height="22.7177" stroke="#D1D5DB" stroke-width="0.495614"/>
<rect x="91.1074" y="113.21" width="22.8735" height="22.7177" stroke="#D1D5DB" stroke-width="0.495614"/>
<rect x="91.1074" y="135.979" width="22.8735" height="22.7177" stroke="#D1D5DB" stroke-width="0.495614"/>
<rect x="91.1074" y="158.747" width="22.8735" height="22.7177" stroke="#D1D5DB" stroke-width="0.495614"/>
<rect x="91.1074" y="181.514" width="22.8735" height="22.7177" stroke="#D1D5DB" stroke-width="0.495614"/>
<rect x="91.1074" y="204.282" width="22.8735" height="22.7177" stroke="#D1D5DB" stroke-width="0.495614"/>
<rect x="46.0547" y="90.4961" width="22.8735" height="22.7177" stroke="#D1D5DB" stroke-width="0.495614"/>
<rect x="46.0547" y="113.21" width="22.8735" height="22.7177" stroke="#D1D5DB" stroke-width="0.495614"/>
<rect x="46.0547" y="135.979" width="22.8735" height="22.7177" stroke="#D1D5DB" stroke-width="0.495614"/>
<rect x="46.0547" y="158.747" width="22.8735" height="22.7177" stroke="#D1D5DB" stroke-width="0.495614"/>
<rect x="46.0547" y="181.514" width="22.8735" height="22.7177" stroke="#D1D5DB" stroke-width="0.495614"/>
<rect x="46.0547" y="204.282" width="22.8735" height="22.7177" stroke="#D1D5DB" stroke-width="0.495614"/>
<rect x="136.854" y="90.4961" width="22.1804" height="22.7177" stroke="#D1D5DB" stroke-width="0.495614"/>
<rect x="136.854" y="113.21" width="22.1804" height="22.7177" stroke="#D1D5DB" stroke-width="0.495614"/>
<rect x="136.854" y="135.979" width="22.1804" height="22.7177" stroke="#D1D5DB" stroke-width="0.495614"/>
<rect x="136.854" y="158.747" width="22.1804" height="22.7177" stroke="#D1D5DB" stroke-width="0.495614"/>
<rect x="136.854" y="181.514" width="22.1804" height="22.7177" stroke="#D1D5DB" stroke-width="0.495614"/>
<rect x="136.854" y="204.282" width="22.1804" height="22.7177" stroke="#D1D5DB" stroke-width="0.495614"/>
<rect x="23.873" y="90.4961" width="22.1804" height="22.7177" stroke="#D1D5DB" stroke-width="0.495614"/>
<rect x="23.873" y="113.21" width="22.1804" height="22.7177" stroke="#D1D5DB" stroke-width="0.495614"/>
<rect x="23.873" y="135.979" width="22.1804" height="22.7177" stroke="#D1D5DB" stroke-width="0.495614"/>
<rect x="23.873" y="158.747" width="22.1804" height="22.7177" stroke="#D1D5DB" stroke-width="0.495614"/>
<rect x="23.873" y="181.514" width="22.1804" height="22.7177" stroke="#D1D5DB" stroke-width="0.495614"/>
<rect x="23.873" y="204.282" width="22.1804" height="22.7177" stroke="#D1D5DB" stroke-width="0.495614"/>
<path d="M204.089 90.4961H226.962V113.214H204.089V90.4961Z" stroke="#D1D5DB" stroke-width="0.495614"/>
<path d="M204.089 113.21H226.962V135.928H204.089V113.21Z" stroke="#D1D5DB" stroke-width="0.495614"/>
<path d="M204.089 135.979H226.962V158.696H204.089V135.979Z" stroke="#D1D5DB" stroke-width="0.495614"/>
<path d="M204.089 158.747H226.962V181.465H204.089V158.747Z" stroke="#D1D5DB" stroke-width="0.495614"/>
<path d="M204.089 181.514H226.962V204.231H204.089V181.514Z" stroke="#D1D5DB" stroke-width="0.495614"/>
<path d="M204.089 204.282H226.962V227H204.089V204.282Z" stroke="#D1D5DB" stroke-width="0.495614"/>
<rect x="113.981" y="90.4961" width="22.8735" height="22.7177" stroke="#D1D5DB" stroke-width="0.495614"/>
<rect x="113.981" y="113.21" width="22.8735" height="22.7177" stroke="#D1D5DB" stroke-width="0.495614"/>
<rect x="113.981" y="135.979" width="22.8735" height="22.7177" stroke="#D1D5DB" stroke-width="0.495614"/>
<rect x="113.981" y="158.747" width="22.8735" height="22.7177" stroke="#D1D5DB" stroke-width="0.495614"/>
<rect x="113.981" y="181.514" width="22.8735" height="22.7177" stroke="#D1D5DB" stroke-width="0.495614"/>
<rect x="113.981" y="204.282" width="22.8735" height="22.7177" stroke="#D1D5DB" stroke-width="0.495614"/>
<rect x="68.9268" y="90.4961" width="22.1804" height="22.7177" stroke="#D1D5DB" stroke-width="0.495614"/>
<rect x="68.9268" y="113.21" width="22.1804" height="22.7177" stroke="#D1D5DB" stroke-width="0.495614"/>
<rect x="68.9268" y="135.979" width="22.1804" height="22.7177" stroke="#D1D5DB" stroke-width="0.495614"/>
<rect x="68.9268" y="158.747" width="22.1804" height="22.7177" stroke="#D1D5DB" stroke-width="0.495614"/>
<rect x="68.9268" y="181.514" width="22.1804" height="22.7177" stroke="#D1D5DB" stroke-width="0.495614"/>
<rect x="68.9268" y="204.282" width="22.1804" height="22.7177" stroke="#D1D5DB" stroke-width="0.495614"/>
<rect x="159.035" y="90.4961" width="22.8735" height="22.7177" stroke="#D1D5DB" stroke-width="0.495614"/>
<rect x="159.035" y="113.21" width="22.8735" height="22.7177" stroke="#D1D5DB" stroke-width="0.495614"/>
<rect x="159.035" y="135.979" width="22.8735" height="22.7177" stroke="#D1D5DB" stroke-width="0.495614"/>
<rect x="159.035" y="158.747" width="22.8735" height="22.7177" stroke="#D1D5DB" stroke-width="0.495614"/>
<rect x="159.035" y="181.514" width="22.8735" height="22.7177" stroke="#D1D5DB" stroke-width="0.495614"/>
<rect x="159.035" y="204.282" width="22.8735" height="22.7177" stroke="#D1D5DB" stroke-width="0.495614"/>
<rect x="1" y="45.748" width="22.8735" height="22.7177" stroke="#D1D5DB" stroke-width="0.495614"/>
<rect x="181.909" y="45.748" width="22.1804" height="22.7177" stroke="#D1D5DB" stroke-width="0.495614"/>
<rect x="91.1074" y="45.748" width="22.8735" height="22.7177" stroke="#D1D5DB" stroke-width="0.495614"/>
<rect x="46.0547" y="45.748" width="22.8735" height="22.7177" stroke="#D1D5DB" stroke-width="0.495614"/>
<rect x="136.854" y="45.748" width="22.1804" height="22.7177" stroke="#D1D5DB" stroke-width="0.495614"/>
<rect x="23.873" y="45.748" width="22.1804" height="22.7177" stroke="#D1D5DB" stroke-width="0.495614"/>
<rect x="204.089" y="45.748" width="22.8735" height="22.7177" stroke="#D1D5DB" stroke-width="0.495614"/>
<rect x="113.981" y="45.748" width="22.8735" height="22.7177" stroke="#D1D5DB" stroke-width="0.495614"/>
<rect x="68.9268" y="45.748" width="22.1804" height="22.7177" stroke="#D1D5DB" stroke-width="0.495614"/>
<rect x="159.035" y="45.748" width="22.8735" height="22.7177" stroke="#D1D5DB" stroke-width="0.495614"/>
<rect x="1" y="23.7158" width="22.8735" height="22.0293" stroke="#D1D5DB" stroke-width="0.495614"/>
<path d="M1 5.34616C1 2.94585 2.94584 1 5.34615 1H23.8735V23.7177H1V5.34616Z" stroke="#D1D5DB" stroke-width="0.495614"/>
<rect x="181.908" y="23.7158" width="22.1804" height="22.0293" stroke="#D1D5DB" stroke-width="0.495614"/>
<rect x="181.909" y="1" width="22.1804" height="22.7177" stroke="#D1D5DB" stroke-width="0.495614"/>
<rect x="91.1074" y="23.7158" width="22.8735" height="22.0293" stroke="#D1D5DB" stroke-width="0.495614"/>
<rect x="91.1074" y="1" width="22.8735" height="22.7177" stroke="#D1D5DB" stroke-width="0.495614"/>
<rect x="46.0547" y="23.7158" width="22.8735" height="22.0293" stroke="#D1D5DB" stroke-width="0.495614"/>
<rect x="46.0547" y="1" width="22.8735" height="22.7177" stroke="#D1D5DB" stroke-width="0.495614"/>
<rect x="136.854" y="23.7158" width="22.1804" height="22.0293" stroke="#D1D5DB" stroke-width="0.495614"/>
<rect x="136.854" y="1" width="22.1804" height="22.7177" stroke="#D1D5DB" stroke-width="0.495614"/>
<rect x="23.873" y="23.7158" width="22.1804" height="22.0293" stroke="#D1D5DB" stroke-width="0.495614"/>
<rect x="23.873" y="1" width="22.1804" height="22.7177" stroke="#D1D5DB" stroke-width="0.495614"/>
<rect x="204.089" y="23.7158" width="22.8735" height="22.0293" stroke="#D1D5DB" stroke-width="0.495614"/>
<path d="M204.089 1H222.616C225.017 1 226.962 2.94584 226.962 5.34615V23.7177H204.089V1Z" stroke="#D1D5DB" stroke-width="0.495614"/>
<rect x="113.981" y="23.7158" width="22.8735" height="22.0293" stroke="#D1D5DB" stroke-width="0.495614"/>
<rect x="113.981" y="1" width="22.8735" height="22.7177" stroke="#D1D5DB" stroke-width="0.495614"/>
<rect x="68.9268" y="23.7158" width="22.1804" height="22.0293" stroke="#D1D5DB" stroke-width="0.495614"/>
<rect x="68.9268" y="1" width="22.1804" height="22.7177" stroke="#D1D5DB" stroke-width="0.495614"/>
<rect x="159.035" y="23.7158" width="22.8735" height="22.0293" stroke="#D1D5DB" stroke-width="0.495614"/>
<rect x="159.035" y="1" width="22.8735" height="22.7177" stroke="#D1D5DB" stroke-width="0.495614"/>
<rect x="1" y="68.4639" width="22.8735" height="22.0293" stroke="#D1D5DB" stroke-width="0.495614"/>
<rect x="181.909" y="68.4639" width="22.1804" height="22.0293" stroke="#D1D5DB" stroke-width="0.495614"/>
<rect x="91.1074" y="68.4639" width="22.8735" height="22.0293" stroke="#D1D5DB" stroke-width="0.495614"/>
<rect x="46.0547" y="68.4639" width="22.8735" height="22.0293" stroke="#D1D5DB" stroke-width="0.495614"/>
<rect x="136.854" y="68.4639" width="22.1804" height="22.0293" stroke="#D1D5DB" stroke-width="0.495614"/>
<rect x="23.873" y="68.4639" width="22.1804" height="22.0293" stroke="#D1D5DB" stroke-width="0.495614"/>
<rect x="204.089" y="68.4639" width="22.8735" height="22.0293" stroke="#D1D5DB" stroke-width="0.495614"/>
<rect x="113.981" y="68.4639" width="22.8735" height="22.0293" stroke="#D1D5DB" stroke-width="0.495614"/>
<rect x="68.9268" y="68.4639" width="22.1804" height="22.0293" stroke="#D1D5DB" stroke-width="0.495614"/>
<rect x="159.035" y="68.4639" width="22.8735" height="22.0293" stroke="#D1D5DB" stroke-width="0.495614"/>
</svg>
