<svg width="342" height="467" viewBox="0 0 342 467" fill="none" xmlns="http://www.w3.org/2000/svg">
<path d="M0 466.5H342V31H311V0H0V466.5Z" fill="#2C566E"/>
<path d="M314 28H342L314 0V28Z" fill="#2C566E"/>
<g opacity="0.2">
<rect x="16" y="326" width="31" height="31" stroke="white" stroke-width="0.5"/>
<rect x="16" y="388" width="31" height="31" stroke="white" stroke-width="0.5"/>
<rect x="264" y="326" width="31" height="31" stroke="white" stroke-width="0.5"/>
<rect x="264" y="388" width="31" height="31" stroke="white" stroke-width="0.5"/>
<rect x="140" y="326" width="31" height="31" stroke="white" stroke-width="0.5"/>
<rect x="140" y="388" width="31" height="31" stroke="white" stroke-width="0.5"/>
<rect x="78" y="326" width="31" height="31" stroke="white" stroke-width="0.5"/>
<rect x="78" y="388" width="31" height="31" stroke="white" stroke-width="0.5"/>
<rect x="202" y="326" width="31" height="31" stroke="white" stroke-width="0.5"/>
<rect x="202" y="388" width="31" height="31" stroke="white" stroke-width="0.5"/>
<rect x="47" y="326" width="31" height="31" stroke="white" stroke-width="0.5"/>
<rect x="47" y="388" width="31" height="31" stroke="white" stroke-width="0.5"/>
<rect x="295" y="326" width="31" height="31" stroke="white" stroke-width="0.5"/>
<rect x="295" y="388" width="31" height="31" stroke="white" stroke-width="0.5"/>
<rect x="171" y="326" width="31" height="31" stroke="white" stroke-width="0.5"/>
<rect x="171" y="388" width="31" height="31" stroke="white" stroke-width="0.5"/>
<rect x="109" y="326" width="31" height="31" stroke="white" stroke-width="0.5"/>
<rect x="109" y="388" width="31" height="31" stroke="white" stroke-width="0.5"/>
<rect x="233" y="326" width="31" height="31" stroke="white" stroke-width="0.5"/>
<rect x="233" y="388" width="31" height="31" stroke="white" stroke-width="0.5"/>
<rect x="16" y="140" width="31" height="31" stroke="white" stroke-width="0.5"/>
<rect x="264" y="140" width="31" height="31" stroke="white" stroke-width="0.5"/>
<rect x="140" y="140" width="31" height="31" stroke="white" stroke-width="0.5"/>
<rect x="78" y="140" width="31" height="31" stroke="white" stroke-width="0.5"/>
<rect x="202" y="140" width="31" height="31" stroke="white" stroke-width="0.5"/>
<rect x="47" y="140" width="31" height="31" stroke="white" stroke-width="0.5"/>
<rect x="295" y="140" width="31" height="31" stroke="white" stroke-width="0.5"/>
<rect x="171" y="140" width="31" height="31" stroke="white" stroke-width="0.5"/>
<rect x="109" y="140" width="31" height="31" stroke="white" stroke-width="0.5"/>
<rect x="233" y="140" width="31" height="31" stroke="white" stroke-width="0.5"/>
<rect x="16" y="78" width="31" height="31" stroke="white" stroke-width="0.5"/>
<rect x="264" y="78" width="31" height="31" stroke="white" stroke-width="0.5"/>
<rect x="140" y="78" width="31" height="31" stroke="white" stroke-width="0.5"/>
<rect x="78" y="78" width="31" height="31" stroke="white" stroke-width="0.5"/>
<rect x="202" y="78" width="31" height="31" stroke="white" stroke-width="0.5"/>
<rect x="47" y="78" width="31" height="31" stroke="white" stroke-width="0.5"/>
<rect x="295" y="78" width="31" height="31" stroke="white" stroke-width="0.5"/>
<rect x="295" y="47" width="31" height="31" stroke="white" stroke-width="0.5"/>
<rect x="171" y="78" width="31" height="31" stroke="white" stroke-width="0.5"/>
<rect x="109" y="78" width="31" height="31" stroke="white" stroke-width="0.5"/>
<rect x="233" y="78" width="31" height="31" stroke="white" stroke-width="0.5"/>
<rect x="16" y="202" width="31" height="31" stroke="white" stroke-width="0.5"/>
<rect x="16" y="264" width="31" height="31" stroke="white" stroke-width="0.5"/>
<rect x="264" y="202" width="31" height="31" stroke="white" stroke-width="0.5"/>
<rect x="264" y="264" width="31" height="31" stroke="white" stroke-width="0.5"/>
<rect x="140" y="202" width="31" height="31" stroke="white" stroke-width="0.5"/>
<rect x="140" y="264" width="31" height="31" stroke="white" stroke-width="0.5"/>
<rect x="78" y="202" width="31" height="31" stroke="white" stroke-width="0.5"/>
<rect x="78" y="264" width="31" height="31" stroke="white" stroke-width="0.5"/>
<rect x="202" y="202" width="31" height="31" stroke="white" stroke-width="0.5"/>
<rect x="202" y="264" width="31" height="31" stroke="white" stroke-width="0.5"/>
<rect x="47" y="202" width="31" height="31" stroke="white" stroke-width="0.5"/>
<rect x="47" y="264" width="31" height="31" stroke="white" stroke-width="0.5"/>
<rect x="295" y="202" width="31" height="31" stroke="white" stroke-width="0.5"/>
<rect x="295" y="264" width="31" height="31" stroke="white" stroke-width="0.5"/>
<rect x="171" y="202" width="31" height="31" stroke="white" stroke-width="0.5"/>
<rect x="171" y="264" width="31" height="31" stroke="white" stroke-width="0.5"/>
<rect x="109" y="202" width="31" height="31" stroke="white" stroke-width="0.5"/>
<rect x="109" y="264" width="31" height="31" stroke="white" stroke-width="0.5"/>
<rect x="233" y="202" width="31" height="31" stroke="white" stroke-width="0.5"/>
<rect x="233" y="264" width="31" height="31" stroke="white" stroke-width="0.5"/>
<rect x="16" y="47" width="31" height="31" stroke="white" stroke-width="0.5"/>
<path d="M16 24C16 19.5817 19.5817 16 24 16H47V47H16V24Z" stroke="white" stroke-width="0.5"/>
<rect x="140" y="47" width="31" height="31" stroke="white" stroke-width="0.5"/>
<rect x="140" y="16" width="31" height="31" stroke="white" stroke-width="0.5"/>
<rect x="78" y="47" width="31" height="31" stroke="white" stroke-width="0.5"/>
<rect x="78" y="16" width="31" height="31" stroke="white" stroke-width="0.5"/>
<rect x="202" y="47" width="31" height="31" stroke="white" stroke-width="0.5"/>
<rect x="202" y="16" width="31" height="31" stroke="white" stroke-width="0.5"/>
<rect x="47" y="47" width="31" height="31" stroke="white" stroke-width="0.5"/>
<rect x="47" y="16" width="31" height="31" stroke="white" stroke-width="0.5"/>
<rect x="171" y="47" width="31" height="31" stroke="white" stroke-width="0.5"/>
<rect x="171" y="16" width="31" height="31" stroke="white" stroke-width="0.5"/>
<rect x="109" y="47" width="31" height="31" stroke="white" stroke-width="0.5"/>
<rect x="109" y="16" width="31" height="31" stroke="white" stroke-width="0.5"/>
<rect x="233" y="47" width="31" height="31" stroke="white" stroke-width="0.5"/>
<rect x="264" y="47" width="31" height="31" stroke="white" stroke-width="0.5"/>
<rect x="233" y="16" width="31" height="31" stroke="white" stroke-width="0.5"/>
<rect x="264" y="16" width="31" height="31" stroke="white" stroke-width="0.5"/>
<path d="M16 419H47V450H24C19.5817 450 16 446.418 16 442V419Z" stroke="white" stroke-width="0.5"/>
<rect x="264" y="419" width="31" height="31" stroke="white" stroke-width="0.5"/>
<rect x="140" y="419" width="31" height="31" stroke="white" stroke-width="0.5"/>
<rect x="78" y="419" width="31" height="31" stroke="white" stroke-width="0.5"/>
<rect x="202" y="419" width="31" height="31" stroke="white" stroke-width="0.5"/>
<rect x="47" y="419" width="31" height="31" stroke="white" stroke-width="0.5"/>
<path d="M295 419H326V442C326 446.418 322.418 450 318 450H295V419Z" stroke="white" stroke-width="0.5"/>
<rect x="171" y="419" width="31" height="31" stroke="white" stroke-width="0.5"/>
<rect x="109" y="419" width="31" height="31" stroke="white" stroke-width="0.5"/>
<rect x="233" y="419" width="31" height="31" stroke="white" stroke-width="0.5"/>
<rect x="16" y="171" width="31" height="31" stroke="white" stroke-width="0.5"/>
<rect x="264" y="171" width="31" height="31" stroke="white" stroke-width="0.5"/>
<rect x="140" y="171" width="31" height="31" stroke="white" stroke-width="0.5"/>
<rect x="78" y="171" width="31" height="31" stroke="white" stroke-width="0.5"/>
<rect x="202" y="171" width="31" height="31" stroke="white" stroke-width="0.5"/>
<rect x="47" y="171" width="31" height="31" stroke="white" stroke-width="0.5"/>
<rect x="295" y="171" width="31" height="31" stroke="white" stroke-width="0.5"/>
<rect x="171" y="171" width="31" height="31" stroke="white" stroke-width="0.5"/>
<rect x="109" y="171" width="31" height="31" stroke="white" stroke-width="0.5"/>
<rect x="233" y="171" width="31" height="31" stroke="white" stroke-width="0.5"/>
<rect x="16" y="109" width="31" height="31" stroke="white" stroke-width="0.5"/>
<rect x="264" y="109" width="31" height="31" stroke="white" stroke-width="0.5"/>
<rect x="140" y="109" width="31" height="31" stroke="white" stroke-width="0.5"/>
<rect x="78" y="109" width="31" height="31" stroke="white" stroke-width="0.5"/>
<rect x="202" y="109" width="31" height="31" stroke="white" stroke-width="0.5"/>
<rect x="47" y="109" width="31" height="31" stroke="white" stroke-width="0.5"/>
<rect x="295" y="109" width="31" height="31" stroke="white" stroke-width="0.5"/>
<rect x="171" y="109" width="31" height="31" stroke="white" stroke-width="0.5"/>
<rect x="109" y="109" width="31" height="31" stroke="white" stroke-width="0.5"/>
<rect x="233" y="109" width="31" height="31" stroke="white" stroke-width="0.5"/>
<rect x="16" y="233" width="31" height="31" stroke="white" stroke-width="0.5"/>
<rect x="16" y="295" width="31" height="31" stroke="white" stroke-width="0.5"/>
<rect x="16" y="357" width="31" height="31" stroke="white" stroke-width="0.5"/>
<rect x="264" y="233" width="31" height="31" stroke="white" stroke-width="0.5"/>
<rect x="264" y="295" width="31" height="31" stroke="white" stroke-width="0.5"/>
<rect x="264" y="357" width="31" height="31" stroke="white" stroke-width="0.5"/>
<rect x="140" y="233" width="31" height="31" stroke="white" stroke-width="0.5"/>
<rect x="140" y="295" width="31" height="31" stroke="white" stroke-width="0.5"/>
<rect x="140" y="357" width="31" height="31" stroke="white" stroke-width="0.5"/>
<rect x="78" y="233" width="31" height="31" stroke="white" stroke-width="0.5"/>
<rect x="78" y="295" width="31" height="31" stroke="white" stroke-width="0.5"/>
<rect x="78" y="357" width="31" height="31" stroke="white" stroke-width="0.5"/>
<rect x="202" y="233" width="31" height="31" stroke="white" stroke-width="0.5"/>
<rect x="202" y="295" width="31" height="31" stroke="white" stroke-width="0.5"/>
<rect x="202" y="357" width="31" height="31" stroke="white" stroke-width="0.5"/>
<rect x="47" y="233" width="31" height="31" stroke="white" stroke-width="0.5"/>
<rect x="47" y="295" width="31" height="31" stroke="white" stroke-width="0.5"/>
<rect x="47" y="357" width="31" height="31" stroke="white" stroke-width="0.5"/>
<rect x="295" y="233" width="31" height="31" stroke="white" stroke-width="0.5"/>
<rect x="295" y="295" width="31" height="31" stroke="white" stroke-width="0.5"/>
<rect x="295" y="357" width="31" height="31" stroke="white" stroke-width="0.5"/>
<rect x="171" y="233" width="31" height="31" stroke="white" stroke-width="0.5"/>
<rect x="171" y="295" width="31" height="31" stroke="white" stroke-width="0.5"/>
<rect x="171" y="357" width="31" height="31" stroke="white" stroke-width="0.5"/>
<rect x="109" y="233" width="31" height="31" stroke="white" stroke-width="0.5"/>
<rect x="109" y="295" width="31" height="31" stroke="white" stroke-width="0.5"/>
<rect x="109" y="357" width="31" height="31" stroke="white" stroke-width="0.5"/>
<rect x="233" y="233" width="31" height="31" stroke="white" stroke-width="0.5"/>
<rect x="233" y="295" width="31" height="31" stroke="white" stroke-width="0.5"/>
<rect x="233" y="357" width="31" height="31" stroke="white" stroke-width="0.5"/>
</g>
<mask id="mask0_1168_45277" style="mask-type:alpha" maskUnits="userSpaceOnUse" x="47" y="264" width="124" height="124">
<path d="M171 264H47V388H171V264Z" fill="#2C566E"/>
</mask>
<g mask="url(#mask0_1168_45277)">
<path d="M177.2 255H30.1997C27.9906 255 26.1997 256.791 26.1997 259V394C26.1997 396.209 27.9906 398 30.1997 398H177.2C179.409 398 181.2 396.209 181.2 394V259C181.2 256.791 179.409 255 177.2 255Z" fill="#5E849B"/>
<rect x="16.2563" y="273.817" width="51.9432" height="26.0918" stroke="#2C566E" stroke-width="0.5"/>
<rect x="16.2563" y="326" width="51.9432" height="26.0918" stroke="#2C566E" stroke-width="0.5"/>
<rect x="16.2563" y="378.184" width="51.9432" height="26.0918" stroke="#2C566E" stroke-width="0.5"/>
<rect x="42.2275" y="247.725" width="51.9432" height="26.0918" stroke="#2C566E" stroke-width="0.5"/>
<rect x="42.2275" y="299.908" width="51.9432" height="26.0918" stroke="#2C566E" stroke-width="0.5"/>
<rect x="42.2275" y="352.092" width="51.9432" height="26.0918" stroke="#2C566E" stroke-width="0.5"/>
<rect x="120.144" y="273.817" width="51.9432" height="26.0918" stroke="#2C566E" stroke-width="0.5"/>
<rect x="120.144" y="326" width="51.9432" height="26.0918" stroke="#2C566E" stroke-width="0.5"/>
<rect x="120.144" y="378.184" width="51.9432" height="26.0918" stroke="#2C566E" stroke-width="0.5"/>
<rect x="146.115" y="247.725" width="51.9432" height="26.0918" stroke="#2C566E" stroke-width="0.5"/>
<rect x="146.115" y="299.908" width="51.9432" height="26.0918" stroke="#2C566E" stroke-width="0.5"/>
<rect x="146.115" y="352.092" width="51.9432" height="26.0918" stroke="#2C566E" stroke-width="0.5"/>
<rect x="68.2002" y="273.817" width="51.9432" height="26.0918" stroke="#2C566E" stroke-width="0.5"/>
<rect x="68.2002" y="326" width="51.9432" height="26.0918" stroke="#2C566E" stroke-width="0.5"/>
<rect x="68.2002" y="378.184" width="51.9432" height="26.0918" stroke="#2C566E" stroke-width="0.5"/>
<rect x="94.1709" y="247.725" width="51.9432" height="26.0918" stroke="#2C566E" stroke-width="0.5"/>
<rect x="94.1709" y="299.908" width="51.9432" height="26.0918" stroke="#2C566E" stroke-width="0.5"/>
<rect x="94.1709" y="352.092" width="51.9432" height="26.0918" stroke="#2C566E" stroke-width="0.5"/>
</g>
<mask id="mask1_1168_45277" style="mask-type:alpha" maskUnits="userSpaceOnUse" x="202" y="47" width="62" height="186">
<path d="M264 47H202V233H264V47Z" fill="#2C566E"/>
</mask>
<g mask="url(#mask1_1168_45277)">
<path d="M291 42H144C141.791 42 140 43.7909 140 46V235C140 237.209 141.791 239 144 239H291C293.209 239 295 237.209 295 235V46C295 43.7909 293.209 42 291 42Z" fill="#5E849B"/>
<line y1="-0.25" x2="253.858" y2="-0.25" transform="matrix(-0.261851 0.965108 -0.956941 -0.290284 207.899 16)" stroke="#2C566E" stroke-width="0.5"/>
<line y1="-0.25" x2="253.858" y2="-0.25" transform="matrix(-0.261851 0.965108 -0.956941 -0.290284 327.551 16)" stroke="#2C566E" stroke-width="0.5"/>
<line y1="-0.25" x2="253.858" y2="-0.25" transform="matrix(-0.261851 0.965108 -0.956941 -0.290284 276.271 16)" stroke="#2C566E" stroke-width="0.5"/>
<line y1="-0.25" x2="253.858" y2="-0.25" transform="matrix(-0.261851 0.965108 -0.956941 -0.290284 259.179 16)" stroke="#2C566E" stroke-width="0.5"/>
<line y1="-0.25" x2="253.858" y2="-0.25" transform="matrix(-0.261851 0.965108 -0.956941 -0.290284 242.085 16)" stroke="#2C566E" stroke-width="0.5"/>
<line y1="-0.25" x2="253.858" y2="-0.25" transform="matrix(-0.261851 0.965108 -0.956941 -0.290284 224.993 16)" stroke="#2C566E" stroke-width="0.5"/>
<line y1="-0.25" x2="253.858" y2="-0.25" transform="matrix(-0.261851 0.965108 -0.956941 -0.290284 310.458 16)" stroke="#2C566E" stroke-width="0.5"/>
<line y1="-0.25" x2="253.858" y2="-0.25" transform="matrix(-0.261851 0.965108 -0.956941 -0.290284 293.364 16)" stroke="#2C566E" stroke-width="0.5"/>
</g>
<text fill="#18181B" xml:space="preserve" style="white-space: pre" font-family="Inter" font-size="10" letter-spacing="0em"><tspan x="215.527" y="438.136">Photoshop + Blender</tspan></text>
<path d="M213.41 212.503C182.297 243.615 106.99 241.848 76.2311 167.248" stroke="black" stroke-width="0.5" stroke-linecap="round"/>
</svg>
