<svg width="342" height="467" viewBox="0 0 342 467" fill="none" xmlns="http://www.w3.org/2000/svg">
<path d="M0 466.5H342V31H311V0H0V466.5Z" fill="#024F2F"/>
<path d="M314 28H342L314 0V28Z" fill="#024F2F"/>
<g opacity="0.2">
<rect x="16" y="326" width="31" height="31" stroke="white" stroke-width="0.5"/>
<rect x="16" y="388" width="31" height="31" stroke="white" stroke-width="0.5"/>
<rect x="264" y="326" width="31" height="31" stroke="white" stroke-width="0.5"/>
<rect x="264" y="388" width="31" height="31" stroke="white" stroke-width="0.5"/>
<rect x="140" y="326" width="31" height="31" stroke="white" stroke-width="0.5"/>
<rect x="140" y="388" width="31" height="31" stroke="white" stroke-width="0.5"/>
<rect x="78" y="326" width="31" height="31" stroke="white" stroke-width="0.5"/>
<rect x="78" y="388" width="31" height="31" stroke="white" stroke-width="0.5"/>
<rect x="202" y="326" width="31" height="31" stroke="white" stroke-width="0.5"/>
<rect x="202" y="388" width="31" height="31" stroke="white" stroke-width="0.5"/>
<rect x="47" y="326" width="31" height="31" stroke="white" stroke-width="0.5"/>
<rect x="47" y="388" width="31" height="31" stroke="white" stroke-width="0.5"/>
<rect x="295" y="326" width="31" height="31" stroke="white" stroke-width="0.5"/>
<rect x="295" y="388" width="31" height="31" stroke="white" stroke-width="0.5"/>
<rect x="171" y="326" width="31" height="31" stroke="white" stroke-width="0.5"/>
<rect x="171" y="388" width="31" height="31" stroke="white" stroke-width="0.5"/>
<rect x="109" y="326" width="31" height="31" stroke="white" stroke-width="0.5"/>
<rect x="109" y="388" width="31" height="31" stroke="white" stroke-width="0.5"/>
<rect x="233" y="326" width="31" height="31" stroke="white" stroke-width="0.5"/>
<rect x="233" y="388" width="31" height="31" stroke="white" stroke-width="0.5"/>
<rect x="16" y="140" width="31" height="31" stroke="white" stroke-width="0.5"/>
<rect x="264" y="140" width="31" height="31" stroke="white" stroke-width="0.5"/>
<rect x="140" y="140" width="31" height="31" stroke="white" stroke-width="0.5"/>
<rect x="78" y="140" width="31" height="31" stroke="white" stroke-width="0.5"/>
<rect x="202" y="140" width="31" height="31" stroke="white" stroke-width="0.5"/>
<rect x="47" y="140" width="31" height="31" stroke="white" stroke-width="0.5"/>
<rect x="295" y="140" width="31" height="31" stroke="white" stroke-width="0.5"/>
<rect x="171" y="140" width="31" height="31" stroke="white" stroke-width="0.5"/>
<rect x="109" y="140" width="31" height="31" stroke="white" stroke-width="0.5"/>
<rect x="233" y="140" width="31" height="31" stroke="white" stroke-width="0.5"/>
<rect x="16" y="78" width="31" height="31" stroke="white" stroke-width="0.5"/>
<rect x="264" y="78" width="31" height="31" stroke="white" stroke-width="0.5"/>
<rect x="140" y="78" width="31" height="31" stroke="white" stroke-width="0.5"/>
<rect x="78" y="78" width="31" height="31" stroke="white" stroke-width="0.5"/>
<rect x="202" y="78" width="31" height="31" stroke="white" stroke-width="0.5"/>
<rect x="47" y="78" width="31" height="31" stroke="white" stroke-width="0.5"/>
<rect x="295" y="78" width="31" height="31" stroke="white" stroke-width="0.5"/>
<rect x="295" y="47" width="31" height="31" stroke="white" stroke-width="0.5"/>
<rect x="171" y="78" width="31" height="31" stroke="white" stroke-width="0.5"/>
<rect x="109" y="78" width="31" height="31" stroke="white" stroke-width="0.5"/>
<rect x="233" y="78" width="31" height="31" stroke="white" stroke-width="0.5"/>
<rect x="16" y="202" width="31" height="31" stroke="white" stroke-width="0.5"/>
<rect x="16" y="264" width="31" height="31" stroke="white" stroke-width="0.5"/>
<rect x="264" y="202" width="31" height="31" stroke="white" stroke-width="0.5"/>
<rect x="264" y="264" width="31" height="31" stroke="white" stroke-width="0.5"/>
<rect x="140" y="202" width="31" height="31" stroke="white" stroke-width="0.5"/>
<rect x="140" y="264" width="31" height="31" stroke="white" stroke-width="0.5"/>
<rect x="78" y="202" width="31" height="31" stroke="white" stroke-width="0.5"/>
<rect x="78" y="264" width="31" height="31" stroke="white" stroke-width="0.5"/>
<rect x="202" y="202" width="31" height="31" stroke="white" stroke-width="0.5"/>
<rect x="202" y="264" width="31" height="31" stroke="white" stroke-width="0.5"/>
<rect x="47" y="202" width="31" height="31" stroke="white" stroke-width="0.5"/>
<rect x="47" y="264" width="31" height="31" stroke="white" stroke-width="0.5"/>
<rect x="295" y="202" width="31" height="31" stroke="white" stroke-width="0.5"/>
<rect x="295" y="264" width="31" height="31" stroke="white" stroke-width="0.5"/>
<rect x="171" y="202" width="31" height="31" stroke="white" stroke-width="0.5"/>
<rect x="171" y="264" width="31" height="31" stroke="white" stroke-width="0.5"/>
<rect x="109" y="202" width="31" height="31" stroke="white" stroke-width="0.5"/>
<rect x="109" y="264" width="31" height="31" stroke="white" stroke-width="0.5"/>
<rect x="233" y="202" width="31" height="31" stroke="white" stroke-width="0.5"/>
<rect x="233" y="264" width="31" height="31" stroke="white" stroke-width="0.5"/>
<rect x="16" y="47" width="31" height="31" stroke="white" stroke-width="0.5"/>
<path d="M16 24C16 19.5817 19.5817 16 24 16H47V47H16V24Z" stroke="white" stroke-width="0.5"/>
<rect x="140" y="47" width="31" height="31" stroke="white" stroke-width="0.5"/>
<rect x="140" y="16" width="31" height="31" stroke="white" stroke-width="0.5"/>
<rect x="78" y="47" width="31" height="31" stroke="white" stroke-width="0.5"/>
<rect x="78" y="16" width="31" height="31" stroke="white" stroke-width="0.5"/>
<rect x="202" y="47" width="31" height="31" stroke="white" stroke-width="0.5"/>
<rect x="202" y="16" width="31" height="31" stroke="white" stroke-width="0.5"/>
<rect x="47" y="47" width="31" height="31" stroke="white" stroke-width="0.5"/>
<rect x="47" y="16" width="31" height="31" stroke="white" stroke-width="0.5"/>
<rect x="171" y="47" width="31" height="31" stroke="white" stroke-width="0.5"/>
<rect x="171" y="16" width="31" height="31" stroke="white" stroke-width="0.5"/>
<rect x="109" y="47" width="31" height="31" stroke="white" stroke-width="0.5"/>
<rect x="109" y="16" width="31" height="31" stroke="white" stroke-width="0.5"/>
<rect x="233" y="47" width="31" height="31" stroke="white" stroke-width="0.5"/>
<rect x="264" y="47" width="31" height="31" stroke="white" stroke-width="0.5"/>
<rect x="233" y="16" width="31" height="31" stroke="white" stroke-width="0.5"/>
<rect x="264" y="16" width="31" height="31" stroke="white" stroke-width="0.5"/>
<path d="M16 419H47V450H24C19.5817 450 16 446.418 16 442V419Z" stroke="white" stroke-width="0.5"/>
<rect x="264" y="419" width="31" height="31" stroke="white" stroke-width="0.5"/>
<rect x="140" y="419" width="31" height="31" stroke="white" stroke-width="0.5"/>
<rect x="78" y="419" width="31" height="31" stroke="white" stroke-width="0.5"/>
<rect x="202" y="419" width="31" height="31" stroke="white" stroke-width="0.5"/>
<rect x="47" y="419" width="31" height="31" stroke="white" stroke-width="0.5"/>
<path d="M295 419H326V442C326 446.418 322.418 450 318 450H295V419Z" stroke="white" stroke-width="0.5"/>
<rect x="171" y="419" width="31" height="31" stroke="white" stroke-width="0.5"/>
<rect x="109" y="419" width="31" height="31" stroke="white" stroke-width="0.5"/>
<rect x="233" y="419" width="31" height="31" stroke="white" stroke-width="0.5"/>
<rect x="16" y="171" width="31" height="31" stroke="white" stroke-width="0.5"/>
<rect x="264" y="171" width="31" height="31" stroke="white" stroke-width="0.5"/>
<rect x="140" y="171" width="31" height="31" stroke="white" stroke-width="0.5"/>
<rect x="78" y="171" width="31" height="31" stroke="white" stroke-width="0.5"/>
<rect x="202" y="171" width="31" height="31" stroke="white" stroke-width="0.5"/>
<rect x="47" y="171" width="31" height="31" stroke="white" stroke-width="0.5"/>
<rect x="295" y="171" width="31" height="31" stroke="white" stroke-width="0.5"/>
<rect x="171" y="171" width="31" height="31" stroke="white" stroke-width="0.5"/>
<rect x="109" y="171" width="31" height="31" stroke="white" stroke-width="0.5"/>
<rect x="233" y="171" width="31" height="31" stroke="white" stroke-width="0.5"/>
<rect x="16" y="109" width="31" height="31" stroke="white" stroke-width="0.5"/>
<rect x="264" y="109" width="31" height="31" stroke="white" stroke-width="0.5"/>
<rect x="140" y="109" width="31" height="31" stroke="white" stroke-width="0.5"/>
<rect x="78" y="109" width="31" height="31" stroke="white" stroke-width="0.5"/>
<rect x="202" y="109" width="31" height="31" stroke="white" stroke-width="0.5"/>
<rect x="47" y="109" width="31" height="31" stroke="white" stroke-width="0.5"/>
<rect x="295" y="109" width="31" height="31" stroke="white" stroke-width="0.5"/>
<rect x="171" y="109" width="31" height="31" stroke="white" stroke-width="0.5"/>
<rect x="109" y="109" width="31" height="31" stroke="white" stroke-width="0.5"/>
<rect x="233" y="109" width="31" height="31" stroke="white" stroke-width="0.5"/>
<rect x="16" y="233" width="31" height="31" stroke="white" stroke-width="0.5"/>
<rect x="16" y="295" width="31" height="31" stroke="white" stroke-width="0.5"/>
<rect x="16" y="357" width="31" height="31" stroke="white" stroke-width="0.5"/>
<rect x="264" y="233" width="31" height="31" stroke="white" stroke-width="0.5"/>
<rect x="264" y="295" width="31" height="31" stroke="white" stroke-width="0.5"/>
<rect x="264" y="357" width="31" height="31" stroke="white" stroke-width="0.5"/>
<rect x="140" y="233" width="31" height="31" stroke="white" stroke-width="0.5"/>
<rect x="140" y="295" width="31" height="31" stroke="white" stroke-width="0.5"/>
<rect x="140" y="357" width="31" height="31" stroke="white" stroke-width="0.5"/>
<rect x="78" y="233" width="31" height="31" stroke="white" stroke-width="0.5"/>
<rect x="78" y="295" width="31" height="31" stroke="white" stroke-width="0.5"/>
<rect x="78" y="357" width="31" height="31" stroke="white" stroke-width="0.5"/>
<rect x="202" y="233" width="31" height="31" stroke="white" stroke-width="0.5"/>
<rect x="202" y="295" width="31" height="31" stroke="white" stroke-width="0.5"/>
<rect x="202" y="357" width="31" height="31" stroke="white" stroke-width="0.5"/>
<rect x="47" y="233" width="31" height="31" stroke="white" stroke-width="0.5"/>
<rect x="47" y="295" width="31" height="31" stroke="white" stroke-width="0.5"/>
<rect x="47" y="357" width="31" height="31" stroke="white" stroke-width="0.5"/>
<rect x="295" y="233" width="31" height="31" stroke="white" stroke-width="0.5"/>
<rect x="295" y="295" width="31" height="31" stroke="white" stroke-width="0.5"/>
<rect x="295" y="357" width="31" height="31" stroke="white" stroke-width="0.5"/>
<rect x="171" y="233" width="31" height="31" stroke="white" stroke-width="0.5"/>
<rect x="171" y="295" width="31" height="31" stroke="white" stroke-width="0.5"/>
<rect x="171" y="357" width="31" height="31" stroke="white" stroke-width="0.5"/>
<rect x="109" y="233" width="31" height="31" stroke="white" stroke-width="0.5"/>
<rect x="109" y="295" width="31" height="31" stroke="white" stroke-width="0.5"/>
<rect x="109" y="357" width="31" height="31" stroke="white" stroke-width="0.5"/>
<rect x="233" y="233" width="31" height="31" stroke="white" stroke-width="0.5"/>
<rect x="233" y="295" width="31" height="31" stroke="white" stroke-width="0.5"/>
<rect x="233" y="357" width="31" height="31" stroke="white" stroke-width="0.5"/>
</g>
<path fill-rule="evenodd" clip-rule="evenodd" d="M202 88H212V119H202V150H192V160H181V169H171V187H161V199H151V212H140V225H129V241H119V253H109V264H99V280H88V303H78V329H88V336H99V343H109V336H119V318H130V303H140V326H130V345H119V350H109V357H99H88H78V350H68H57V339H47V290H57V273H68V257H78V241H88V228H99V213H109V202H119V190H129V177H140V160H151V150H161V135H171V119H181V109H159V99H202V88ZM160 291H150V336H160V343H171V350H181V357H191H202H212V350H223V345H233V329H243V350H254H264V357H274V352H285H295V336H285V343H274V293H285V270H295V244H305V235H295H285V241H274V249H264V233H254H243H233H223H212V239H202V247H191V255H181V264H171V278H160V291ZM264 255V285H254V299H243V320H233V326H223V336H212H202V343H191V336H181V291H191V272H202V264H212V251H223H233V241H243V249H254V255H264ZM305 291H315V256H326V357H315V348H305V291Z" fill="#3D7256"/>
<path d="M47 109C47 85.5031 53.9982 71.2997 78.5 58C115.5 41.5 168 62 201 47.3922" stroke="black" stroke-width="0.5" stroke-linecap="round"/>
<text fill="#18181B" xml:space="preserve" style="white-space: pre" font-family="Inter" font-size="10" letter-spacing="0em"><tspan x="270.43" y="438.136">StableLM</tspan></text>
<path d="M161 258.5V254H171V245H181V237" stroke="black" stroke-width="0.5"/>
</svg>
