<svg width="342" height="187" viewBox="0 0 342 187" fill="none" xmlns="http://www.w3.org/2000/svg">
<path d="M0 24C0 10.7452 10.7452 0 24 0H318C331.255 0 342 10.7452 342 24V163C342 176.255 331.255 187 318 187H24C10.7452 187 0 176.255 0 163V24Z" fill="#F6F6EF"/>
<path d="M16 139.622H47.3804V171.002H24C19.5817 171.002 16 167.421 16 163.002V139.622Z" stroke="#D1D5DB" stroke-width="0.5"/>
<rect x="264.189" y="139.622" width="30.4295" height="31.3804" stroke="#D1D5DB" stroke-width="0.5"/>
<rect x="139.619" y="139.622" width="31.3804" height="31.3804" stroke="#D1D5DB" stroke-width="0.5"/>
<rect x="77.8105" y="139.622" width="31.3804" height="31.3804" stroke="#D1D5DB" stroke-width="0.5"/>
<rect x="202.381" y="139.622" width="30.4295" height="31.3804" stroke="#D1D5DB" stroke-width="0.5"/>
<rect x="47.3809" y="139.622" width="30.4295" height="31.3804" stroke="#D1D5DB" stroke-width="0.5"/>
<path d="M294.619 139.622H326V163.002C326 167.421 322.418 171.002 318 171.002H294.619V139.622Z" stroke="#D1D5DB" stroke-width="0.5"/>
<rect x="171" y="139.622" width="31.3804" height="31.3804" stroke="#D1D5DB" stroke-width="0.5"/>
<rect x="109.189" y="139.622" width="30.4295" height="31.3804" stroke="#D1D5DB" stroke-width="0.5"/>
<rect x="232.811" y="139.622" width="31.3804" height="31.3804" stroke="#D1D5DB" stroke-width="0.5"/>
<rect x="16" y="77.8103" width="31.3804" height="31.3804" stroke="#D1D5DB" stroke-width="0.5"/>
<rect x="264.19" y="77.8103" width="30.4295" height="31.3804" stroke="#D1D5DB" stroke-width="0.5"/>
<rect x="139.619" y="77.8103" width="31.3804" height="31.3804" stroke="#D1D5DB" stroke-width="0.5"/>
<rect x="77.8105" y="77.8103" width="31.3804" height="31.3804" stroke="#D1D5DB" stroke-width="0.5"/>
<rect x="202.381" y="77.8103" width="30.4295" height="31.3804" stroke="#D1D5DB" stroke-width="0.5"/>
<rect x="47.3809" y="77.8103" width="30.4295" height="31.3804" stroke="#D1D5DB" stroke-width="0.5"/>
<rect x="294.619" y="77.8103" width="31.3804" height="31.3804" stroke="#D1D5DB" stroke-width="0.5"/>
<rect x="171" y="77.8103" width="31.3804" height="31.3804" stroke="#D1D5DB" stroke-width="0.5"/>
<rect x="109.189" y="77.8103" width="30.4295" height="31.3804" stroke="#D1D5DB" stroke-width="0.5"/>
<rect x="232.811" y="77.8103" width="31.3804" height="31.3804" stroke="#D1D5DB" stroke-width="0.5"/>
<rect x="16" y="47.3779" width="31.3804" height="30.4295" stroke="#D1D5DB" stroke-width="0.5"/>
<path d="M16 24C16 19.5817 19.5817 16 24 16H47.3804V47.3804H16V24Z" stroke="#D1D5DB" stroke-width="0.5"/>
<rect x="264.189" y="47.3779" width="30.4295" height="30.4295" stroke="#D1D5DB" stroke-width="0.5"/>
<rect x="264.19" y="16" width="30.4295" height="31.3804" stroke="#D1D5DB" stroke-width="0.5"/>
<rect x="139.619" y="47.3779" width="31.3804" height="30.4295" stroke="#D1D5DB" stroke-width="0.5"/>
<rect x="139.619" y="16" width="31.3804" height="31.3804" stroke="#D1D5DB" stroke-width="0.5"/>
<rect x="77.8105" y="47.3779" width="31.3804" height="30.4295" stroke="#D1D5DB" stroke-width="0.5"/>
<rect x="77.8105" y="16" width="31.3804" height="31.3804" stroke="#D1D5DB" stroke-width="0.5"/>
<rect x="202.381" y="47.3779" width="30.4295" height="30.4295" stroke="#D1D5DB" stroke-width="0.5"/>
<rect x="202.381" y="16" width="30.4295" height="31.3804" stroke="#D1D5DB" stroke-width="0.5"/>
<rect x="47.3809" y="47.3779" width="30.4295" height="30.4295" stroke="#D1D5DB" stroke-width="0.5"/>
<rect x="47.3809" y="16" width="30.4295" height="31.3804" stroke="#D1D5DB" stroke-width="0.5"/>
<rect x="294.619" y="47.3779" width="31.3804" height="30.4295" stroke="#D1D5DB" stroke-width="0.5"/>
<path d="M294.619 16H318C322.418 16 326 19.5817 326 24V47.3804H294.619V16Z" stroke="#D1D5DB" stroke-width="0.5"/>
<rect x="171" y="47.3779" width="31.3804" height="30.4295" stroke="#D1D5DB" stroke-width="0.5"/>
<rect x="171" y="16" width="31.3804" height="31.3804" stroke="#D1D5DB" stroke-width="0.5"/>
<rect x="109.189" y="47.3779" width="30.4295" height="30.4295" stroke="#D1D5DB" stroke-width="0.5"/>
<rect x="109.189" y="16" width="30.4295" height="31.3804" stroke="#D1D5DB" stroke-width="0.5"/>
<rect x="232.811" y="47.3779" width="31.3804" height="30.4295" stroke="#D1D5DB" stroke-width="0.5"/>
<rect x="232.811" y="16" width="31.3804" height="31.3804" stroke="#D1D5DB" stroke-width="0.5"/>
<rect x="16" y="109.189" width="31.3804" height="30.4295" stroke="#D1D5DB" stroke-width="0.5"/>
<rect x="264.19" y="109.189" width="30.4295" height="30.4295" stroke="#D1D5DB" stroke-width="0.5"/>
<rect x="139.619" y="109.189" width="31.3804" height="30.4295" stroke="#D1D5DB" stroke-width="0.5"/>
<rect x="77.8105" y="109.189" width="31.3804" height="30.4295" stroke="#D1D5DB" stroke-width="0.5"/>
<rect x="202.381" y="109.189" width="30.4295" height="30.4295" stroke="#D1D5DB" stroke-width="0.5"/>
<rect x="47.3809" y="109.189" width="30.4295" height="30.4295" stroke="#D1D5DB" stroke-width="0.5"/>
<rect x="294.619" y="109.189" width="31.3804" height="30.4295" stroke="#D1D5DB" stroke-width="0.5"/>
<rect x="171" y="109.189" width="31.3804" height="30.4295" stroke="#D1D5DB" stroke-width="0.5"/>
<rect x="109.189" y="109.189" width="30.4295" height="30.4295" stroke="#D1D5DB" stroke-width="0.5"/>
<rect x="232.811" y="109.189" width="31.3804" height="30.4295" stroke="#D1D5DB" stroke-width="0.5"/>
<rect x="115.417" y="62.1157" width="31" height="31" rx="15.5" transform="rotate(133.995 115.417 62.1157)" fill="#B84317"/>
<g opacity="0.6">
<path d="M85.7158 54.7062C81.4507 59.1237 81.5742 66.1623 85.9916 70.4274C90.4091 74.6926 97.4477 74.5691 101.713 70.1516C105.978 65.7341 105.854 58.6955 101.437 54.4304C97.0196 50.1653 89.9809 50.2888 85.7158 54.7062Z" stroke="white" stroke-linecap="round" stroke-linejoin="round"/>
<path d="M97.2837 64.0681L95.9966 65.4012L90.6642 60.2527" stroke="white" stroke-linecap="round" stroke-linejoin="round"/>
</g>
<rect x="251" y="71.7427" width="31" height="31" rx="15.5" transform="rotate(51.99 251 71.7427)" fill="#A78306"/>
<g opacity="0.6">
<path d="M239.531 100.125C243.313 104.963 250.3 105.819 255.138 102.038C259.976 98.2568 260.833 91.2694 257.052 86.4313C253.27 81.5932 246.283 80.7365 241.445 84.5178C236.607 88.2991 235.75 95.2865 239.531 100.125Z" stroke="white" stroke-linecap="round" stroke-linejoin="round"/>
<path d="M250.411 89.9714L251.552 91.4315L245.712 95.9959" stroke="white" stroke-linecap="round" stroke-linejoin="round"/>
</g>
<rect x="134.315" y="116.344" width="31" height="31" rx="15.5" transform="rotate(-23.8385 134.315 116.344)" fill="#024F2F"/>
<g opacity="0.6">
<path d="M159.026 134.412C164.642 131.931 167.183 125.366 164.702 119.749C162.22 114.132 155.655 111.591 150.038 114.073C144.422 116.555 141.88 123.12 144.362 128.736C146.844 134.353 153.409 136.894 159.026 134.412Z" stroke="white" stroke-linecap="round" stroke-linejoin="round"/>
<path d="M151.845 121.378L153.54 120.629L156.536 127.409" stroke="white" stroke-linecap="round" stroke-linejoin="round"/>
</g>
</svg>
