<svg width="312" height="157" viewBox="0 0 312 157" fill="none" xmlns="http://www.w3.org/2000/svg">
<path d="M1 124.622H32.3804V156.002H1V124.622Z" stroke="#D1D5DB" stroke-width="0.5"/>
<rect x="249.189" y="124.622" width="30.4295" height="31.3804" stroke="#D1D5DB" stroke-width="0.5"/>
<rect x="124.619" y="124.622" width="31.3804" height="31.3804" stroke="#D1D5DB" stroke-width="0.5"/>
<rect x="62.8105" y="124.622" width="31.3804" height="31.3804" stroke="#D1D5DB" stroke-width="0.5"/>
<rect x="187.381" y="124.622" width="30.4295" height="31.3804" stroke="#D1D5DB" stroke-width="0.5"/>
<rect x="32.3809" y="124.622" width="30.4295" height="31.3804" stroke="#D1D5DB" stroke-width="0.5"/>
<path d="M279.619 124.622H311V156.002H279.619V124.622Z" stroke="#D1D5DB" stroke-width="0.5"/>
<rect x="156" y="124.622" width="31.3804" height="31.3804" stroke="#D1D5DB" stroke-width="0.5"/>
<rect x="94.1895" y="124.622" width="30.4295" height="31.3804" stroke="#D1D5DB" stroke-width="0.5"/>
<rect x="217.811" y="124.622" width="31.3804" height="31.3804" stroke="#D1D5DB" stroke-width="0.5"/>
<rect x="1" y="62.8103" width="31.3804" height="31.3804" stroke="#D1D5DB" stroke-width="0.5"/>
<rect x="249.19" y="62.8103" width="30.4295" height="31.3804" stroke="#D1D5DB" stroke-width="0.5"/>
<rect x="124.619" y="62.8103" width="31.3804" height="31.3804" stroke="#D1D5DB" stroke-width="0.5"/>
<rect x="62.8105" y="62.8103" width="31.3804" height="31.3804" stroke="#D1D5DB" stroke-width="0.5"/>
<rect x="187.381" y="62.8103" width="30.4295" height="31.3804" stroke="#D1D5DB" stroke-width="0.5"/>
<rect x="32.3809" y="62.8103" width="30.4295" height="31.3804" stroke="#D1D5DB" stroke-width="0.5"/>
<rect x="279.619" y="62.8103" width="31.3804" height="31.3804" stroke="#D1D5DB" stroke-width="0.5"/>
<rect x="156" y="62.8103" width="31.3804" height="31.3804" stroke="#D1D5DB" stroke-width="0.5"/>
<rect x="94.1895" y="62.8103" width="30.4295" height="31.3804" stroke="#D1D5DB" stroke-width="0.5"/>
<rect x="217.811" y="62.8103" width="31.3804" height="31.3804" stroke="#D1D5DB" stroke-width="0.5"/>
<rect x="1" y="32.3779" width="31.3804" height="30.4295" stroke="#D1D5DB" stroke-width="0.5"/>
<path d="M1 9C1 4.58172 4.58172 1 9 1H32.3804V32.3804H1V9Z" stroke="#D1D5DB" stroke-width="0.5"/>
<rect x="249.189" y="32.3779" width="30.4295" height="30.4295" stroke="#D1D5DB" stroke-width="0.5"/>
<rect x="249.19" y="1" width="30.4295" height="31.3804" stroke="#D1D5DB" stroke-width="0.5"/>
<rect x="124.619" y="32.3779" width="31.3804" height="30.4295" stroke="#D1D5DB" stroke-width="0.5"/>
<rect x="124.619" y="1" width="31.3804" height="31.3804" stroke="#D1D5DB" stroke-width="0.5"/>
<rect x="62.8105" y="32.3779" width="31.3804" height="30.4295" stroke="#D1D5DB" stroke-width="0.5"/>
<rect x="62.8105" y="1" width="31.3804" height="31.3804" stroke="#D1D5DB" stroke-width="0.5"/>
<rect x="187.381" y="32.3779" width="30.4295" height="30.4295" stroke="#D1D5DB" stroke-width="0.5"/>
<rect x="187.381" y="1" width="30.4295" height="31.3804" stroke="#D1D5DB" stroke-width="0.5"/>
<rect x="32.3809" y="32.3779" width="30.4295" height="30.4295" stroke="#D1D5DB" stroke-width="0.5"/>
<rect x="32.3809" y="1" width="30.4295" height="31.3804" stroke="#D1D5DB" stroke-width="0.5"/>
<rect x="279.619" y="32.3779" width="31.3804" height="30.4295" stroke="#D1D5DB" stroke-width="0.5"/>
<path d="M279.619 1H303C307.418 1 311 4.58172 311 9V32.3804H279.619V1Z" stroke="#D1D5DB" stroke-width="0.5"/>
<rect x="156" y="32.3779" width="31.3804" height="30.4295" stroke="#D1D5DB" stroke-width="0.5"/>
<rect x="156" y="1" width="31.3804" height="31.3804" stroke="#D1D5DB" stroke-width="0.5"/>
<rect x="94.1895" y="32.3779" width="30.4295" height="30.4295" stroke="#D1D5DB" stroke-width="0.5"/>
<rect x="94.1895" y="1" width="30.4295" height="31.3804" stroke="#D1D5DB" stroke-width="0.5"/>
<rect x="217.811" y="32.3779" width="31.3804" height="30.4295" stroke="#D1D5DB" stroke-width="0.5"/>
<rect x="217.811" y="1" width="31.3804" height="31.3804" stroke="#D1D5DB" stroke-width="0.5"/>
<rect x="1" y="94.1895" width="31.3804" height="30.4295" stroke="#D1D5DB" stroke-width="0.5"/>
<rect x="249.19" y="94.1895" width="30.4295" height="30.4295" stroke="#D1D5DB" stroke-width="0.5"/>
<rect x="124.619" y="94.1895" width="31.3804" height="30.4295" stroke="#D1D5DB" stroke-width="0.5"/>
<rect x="62.8105" y="94.1895" width="31.3804" height="30.4295" stroke="#D1D5DB" stroke-width="0.5"/>
<rect x="187.381" y="94.1895" width="30.4295" height="30.4295" stroke="#D1D5DB" stroke-width="0.5"/>
<rect x="32.3809" y="94.1895" width="30.4295" height="30.4295" stroke="#D1D5DB" stroke-width="0.5"/>
<rect x="279.619" y="94.1895" width="31.3804" height="30.4295" stroke="#D1D5DB" stroke-width="0.5"/>
<rect x="156" y="94.1895" width="31.3804" height="30.4295" stroke="#D1D5DB" stroke-width="0.5"/>
<rect x="94.1895" y="94.1895" width="30.4295" height="30.4295" stroke="#D1D5DB" stroke-width="0.5"/>
<rect x="217.811" y="94.1895" width="31.3804" height="30.4295" stroke="#D1D5DB" stroke-width="0.5"/>
<rect x="63" y="63" width="186" height="31" rx="15.5" fill="#F2EEDC"/>
<path d="M127.095 77H126.038C125.976 76.696 125.866 76.429 125.71 76.1989C125.557 75.9688 125.369 75.7756 125.148 75.6193C124.929 75.4602 124.686 75.3409 124.419 75.2614C124.152 75.1818 123.874 75.142 123.584 75.142C123.055 75.142 122.577 75.2756 122.148 75.5426C121.722 75.8097 121.382 76.2031 121.129 76.723C120.879 77.2429 120.754 77.8807 120.754 78.6364C120.754 79.392 120.879 80.0298 121.129 80.5497C121.382 81.0696 121.722 81.4631 122.148 81.7301C122.577 81.9972 123.055 82.1307 123.584 82.1307C123.874 82.1307 124.152 82.0909 124.419 82.0114C124.686 81.9318 124.929 81.8139 125.148 81.6577C125.369 81.4986 125.557 81.304 125.71 81.0739C125.866 80.8409 125.976 80.5739 126.038 80.2727H127.095C127.016 80.7187 126.871 81.1179 126.661 81.4702C126.45 81.8224 126.189 82.1222 125.876 82.3693C125.564 82.6136 125.213 82.7997 124.824 82.9276C124.438 83.0554 124.024 83.1193 123.584 83.1193C122.839 83.1193 122.178 82.9375 121.598 82.5739C121.018 82.2102 120.563 81.6932 120.23 81.0227C119.898 80.3523 119.732 79.5568 119.732 78.6364C119.732 77.7159 119.898 76.9205 120.23 76.25C120.563 75.5795 121.018 75.0625 121.598 74.6989C122.178 74.3352 122.839 74.1534 123.584 74.1534C124.024 74.1534 124.438 74.2173 124.824 74.3452C125.213 74.473 125.564 74.6605 125.876 74.9077C126.189 75.152 126.45 75.4503 126.661 75.8026C126.871 76.152 127.016 76.5511 127.095 77ZM131.326 83.1364C130.735 83.1364 130.216 82.9957 129.77 82.7145C129.327 82.4332 128.98 82.0398 128.73 81.5341C128.483 81.0284 128.36 80.4375 128.36 79.7614C128.36 79.0795 128.483 78.4844 128.73 77.9759C128.98 77.4673 129.327 77.0724 129.77 76.7912C130.216 76.5099 130.735 76.3693 131.326 76.3693C131.917 76.3693 132.434 76.5099 132.877 76.7912C133.323 77.0724 133.669 77.4673 133.917 77.9759C134.167 78.4844 134.292 79.0795 134.292 79.7614C134.292 80.4375 134.167 81.0284 133.917 81.5341C133.669 82.0398 133.323 82.4332 132.877 82.7145C132.434 82.9957 131.917 83.1364 131.326 83.1364ZM131.326 82.233C131.775 82.233 132.144 82.1179 132.434 81.8878C132.723 81.6577 132.938 81.3551 133.077 80.9801C133.216 80.6051 133.286 80.1989 133.286 79.7614C133.286 79.3239 133.216 78.9162 133.077 78.5384C132.938 78.1605 132.723 77.8551 132.434 77.6222C132.144 77.3892 131.775 77.2727 131.326 77.2727C130.877 77.2727 130.507 77.3892 130.218 77.6222C129.928 77.8551 129.713 78.1605 129.574 78.5384C129.435 78.9162 129.365 79.3239 129.365 79.7614C129.365 80.1989 129.435 80.6051 129.574 80.9801C129.713 81.3551 129.928 81.6577 130.218 81.8878C130.507 82.1179 130.877 82.233 131.326 82.233ZM135.827 83V76.4545H136.798V77.4773H136.884C137.02 77.1278 137.24 76.8565 137.544 76.6634C137.848 76.4673 138.213 76.3693 138.639 76.3693C139.071 76.3693 139.43 76.4673 139.717 76.6634C140.007 76.8565 140.233 77.1278 140.395 77.4773H140.463C140.631 77.1392 140.882 76.8707 141.217 76.6719C141.553 76.4702 141.955 76.3693 142.423 76.3693C143.009 76.3693 143.487 76.5526 143.859 76.919C144.232 77.2827 144.418 77.8494 144.418 78.6193V83H143.412V78.6193C143.412 78.1364 143.28 77.7912 143.016 77.5838C142.751 77.3764 142.44 77.2727 142.082 77.2727C141.622 77.2727 141.266 77.4119 141.013 77.6903C140.76 77.9659 140.634 78.3153 140.634 78.7386V83H139.611V78.517C139.611 78.1449 139.49 77.8452 139.249 77.6179C139.007 77.3878 138.696 77.2727 138.315 77.2727C138.054 77.2727 137.81 77.3423 137.582 77.4815C137.358 77.6207 137.176 77.8139 137.037 78.0611C136.901 78.3054 136.832 78.5881 136.832 78.9091V83H135.827ZM146.256 83V76.4545H147.262V83H146.256ZM146.768 75.3636C146.572 75.3636 146.403 75.2969 146.261 75.1634C146.121 75.0298 146.052 74.8693 146.052 74.6818C146.052 74.4943 146.121 74.3338 146.261 74.2003C146.403 74.0668 146.572 74 146.768 74C146.964 74 147.131 74.0668 147.271 74.2003C147.413 74.3338 147.484 74.4943 147.484 74.6818C147.484 74.8693 147.413 75.0298 147.271 75.1634C147.131 75.2969 146.964 75.3636 146.768 75.3636ZM150.11 79.0625V83H149.104V76.4545H150.076V77.4773H150.161C150.314 77.1449 150.547 76.8778 150.86 76.6761C151.172 76.4716 151.576 76.3693 152.07 76.3693C152.513 76.3693 152.901 76.4602 153.233 76.642C153.566 76.821 153.824 77.0938 154.009 77.4602C154.194 77.8239 154.286 78.2841 154.286 78.8409V83H153.28V78.9091C153.28 78.3949 153.147 77.9943 152.88 77.7074C152.613 77.4176 152.246 77.2727 151.78 77.2727C151.459 77.2727 151.172 77.3423 150.919 77.4815C150.669 77.6207 150.472 77.8239 150.327 78.0909C150.182 78.358 150.11 78.6818 150.11 79.0625ZM158.766 85.5909C158.28 85.5909 157.862 85.5284 157.513 85.4034C157.163 85.2812 156.872 85.1193 156.639 84.9176C156.409 84.7188 156.226 84.5057 156.089 84.2784L156.891 83.7159C156.982 83.8352 157.097 83.9716 157.236 84.125C157.375 84.2812 157.565 84.4162 157.807 84.5298C158.051 84.6463 158.371 84.7045 158.766 84.7045C159.294 84.7045 159.73 84.5767 160.074 84.321C160.418 84.0653 160.589 83.6648 160.589 83.1193V81.7898H160.504C160.43 81.9091 160.325 82.0568 160.189 82.233C160.055 82.4062 159.862 82.5611 159.609 82.6974C159.359 82.831 159.021 82.8977 158.595 82.8977C158.067 82.8977 157.592 82.7727 157.172 82.5227C156.754 82.2727 156.423 81.9091 156.179 81.4318C155.938 80.9545 155.817 80.375 155.817 79.6932C155.817 79.0227 155.935 78.4389 156.17 77.9418C156.406 77.4418 156.734 77.0554 157.155 76.7827C157.575 76.5071 158.061 76.3693 158.612 76.3693C159.038 76.3693 159.376 76.4403 159.626 76.5824C159.879 76.7216 160.072 76.8807 160.206 77.0597C160.342 77.2358 160.447 77.3807 160.521 77.4943H160.624V76.4545H161.595V83.1875C161.595 83.75 161.467 84.2074 161.212 84.5597C160.959 84.9148 160.618 85.1747 160.189 85.3395C159.763 85.5071 159.288 85.5909 158.766 85.5909ZM158.732 81.9943C159.135 81.9943 159.476 81.902 159.754 81.7173C160.033 81.5327 160.244 81.267 160.389 80.9205C160.534 80.5739 160.607 80.1591 160.607 79.6761C160.607 79.2045 160.536 78.7884 160.393 78.4276C160.251 78.0668 160.041 77.7841 159.763 77.5795C159.484 77.375 159.141 77.2727 158.732 77.2727C158.305 77.2727 157.95 77.3807 157.666 77.5966C157.385 77.8125 157.173 78.1023 157.031 78.4659C156.892 78.8295 156.822 79.233 156.822 79.6761C156.822 80.1307 156.893 80.5327 157.036 80.8821C157.18 81.2287 157.393 81.5014 157.675 81.7003C157.959 81.8963 158.311 81.9943 158.732 81.9943ZM171.447 77.9205L170.544 78.1761C170.487 78.0256 170.403 77.8793 170.293 77.7372C170.185 77.5923 170.037 77.473 169.849 77.3793C169.662 77.2855 169.422 77.2386 169.129 77.2386C168.729 77.2386 168.395 77.331 168.128 77.5156C167.864 77.6974 167.732 77.929 167.732 78.2102C167.732 78.4602 167.822 78.6577 168.004 78.8026C168.186 78.9474 168.47 79.0682 168.857 79.1648L169.828 79.4034C170.413 79.5455 170.849 79.7628 171.136 80.0554C171.423 80.3452 171.567 80.7187 171.567 81.1761C171.567 81.5511 171.459 81.8864 171.243 82.1818C171.03 82.4773 170.732 82.7102 170.348 82.8807C169.964 83.0511 169.518 83.1364 169.01 83.1364C168.342 83.1364 167.79 82.9915 167.352 82.7017C166.915 82.4119 166.638 81.9886 166.521 81.4318L167.476 81.1932C167.567 81.5455 167.739 81.8097 167.991 81.9858C168.247 82.1619 168.581 82.25 168.993 82.25C169.462 82.25 169.834 82.1506 170.109 81.9517C170.388 81.75 170.527 81.5085 170.527 81.2273C170.527 81 170.447 80.8097 170.288 80.6562C170.129 80.5 169.885 80.3835 169.555 80.3068L168.464 80.0511C167.865 79.9091 167.425 79.6889 167.143 79.3906C166.865 79.0895 166.726 78.7131 166.726 78.2614C166.726 77.892 166.83 77.5653 167.037 77.2812C167.247 76.9972 167.533 76.7741 167.893 76.6122C168.257 76.4503 168.669 76.3693 169.129 76.3693C169.777 76.3693 170.286 76.5114 170.655 76.7955C171.027 77.0795 171.291 77.4545 171.447 77.9205ZM175.74 83.1364C175.149 83.1364 174.63 82.9957 174.184 82.7145C173.741 82.4332 173.395 82.0398 173.145 81.5341C172.897 81.0284 172.774 80.4375 172.774 79.7614C172.774 79.0795 172.897 78.4844 173.145 77.9759C173.395 77.4673 173.741 77.0724 174.184 76.7912C174.63 76.5099 175.149 76.3693 175.74 76.3693C176.331 76.3693 176.848 76.5099 177.291 76.7912C177.737 77.0724 178.083 77.4673 178.331 77.9759C178.581 78.4844 178.706 79.0795 178.706 79.7614C178.706 80.4375 178.581 81.0284 178.331 81.5341C178.083 82.0398 177.737 82.4332 177.291 82.7145C176.848 82.9957 176.331 83.1364 175.74 83.1364ZM175.74 82.233C176.189 82.233 176.558 82.1179 176.848 81.8878C177.137 81.6577 177.352 81.3551 177.491 80.9801C177.63 80.6051 177.7 80.1989 177.7 79.7614C177.7 79.3239 177.63 78.9162 177.491 78.5384C177.352 78.1605 177.137 77.8551 176.848 77.6222C176.558 77.3892 176.189 77.2727 175.74 77.2727C175.291 77.2727 174.922 77.3892 174.632 77.6222C174.342 77.8551 174.127 78.1605 173.988 78.5384C173.849 78.9162 173.779 79.3239 173.779 79.7614C173.779 80.1989 173.849 80.6051 173.988 80.9801C174.127 81.3551 174.342 81.6577 174.632 81.8878C174.922 82.1179 175.291 82.233 175.74 82.233ZM182.9 83.1364C182.309 83.1364 181.79 82.9957 181.344 82.7145C180.901 82.4332 180.555 82.0398 180.305 81.5341C180.058 81.0284 179.934 80.4375 179.934 79.7614C179.934 79.0795 180.058 78.4844 180.305 77.9759C180.555 77.4673 180.901 77.0724 181.344 76.7912C181.79 76.5099 182.309 76.3693 182.9 76.3693C183.491 76.3693 184.008 76.5099 184.451 76.7912C184.897 77.0724 185.244 77.4673 185.491 77.9759C185.741 78.4844 185.866 79.0795 185.866 79.7614C185.866 80.4375 185.741 81.0284 185.491 81.5341C185.244 82.0398 184.897 82.4332 184.451 82.7145C184.008 82.9957 183.491 83.1364 182.9 83.1364ZM182.9 82.233C183.349 82.233 183.718 82.1179 184.008 81.8878C184.298 81.6577 184.512 81.3551 184.651 80.9801C184.79 80.6051 184.86 80.1989 184.86 79.7614C184.86 79.3239 184.79 78.9162 184.651 78.5384C184.512 78.1605 184.298 77.8551 184.008 77.6222C183.718 77.3892 183.349 77.2727 182.9 77.2727C182.451 77.2727 182.082 77.3892 181.792 77.6222C181.502 77.8551 181.288 78.1605 181.148 78.5384C181.009 78.9162 180.94 79.3239 180.94 79.7614C180.94 80.1989 181.009 80.6051 181.148 80.9801C181.288 81.3551 181.502 81.6577 181.792 81.8878C182.082 82.1179 182.451 82.233 182.9 82.233ZM188.407 79.0625V83H187.401V76.4545H188.373V77.4773H188.458C188.611 77.1449 188.844 76.8778 189.157 76.6761C189.469 76.4716 189.873 76.3693 190.367 76.3693C190.81 76.3693 191.198 76.4602 191.53 76.642C191.863 76.821 192.121 77.0938 192.306 77.4602C192.49 77.8239 192.583 78.2841 192.583 78.8409V83H191.577V78.9091C191.577 78.3949 191.444 77.9943 191.176 77.7074C190.909 77.4176 190.543 77.2727 190.077 77.2727C189.756 77.2727 189.469 77.3423 189.216 77.4815C188.966 77.6207 188.769 77.8239 188.624 78.0909C188.479 78.358 188.407 78.6818 188.407 79.0625Z" fill="#2A282C"/>
</svg>
