<svg width="342" height="187" viewBox="0 0 342 187" fill="none" xmlns="http://www.w3.org/2000/svg">
<path d="M0 24C0 10.7452 10.7452 0 24 0H318C331.255 0 342 10.7452 342 24V163C342 176.255 331.255 187 318 187H24C10.7452 187 0 176.255 0 163V24Z" fill="#F6F6EF"/>
<path d="M16 139.622H47.3804V171.002H24C19.5817 171.002 16 167.421 16 163.002V139.622Z" stroke="#D1D5DB" stroke-width="0.5"/>
<rect x="264.189" y="139.622" width="30.4295" height="31.3804" stroke="#D1D5DB" stroke-width="0.5"/>
<rect x="139.619" y="139.622" width="31.3804" height="31.3804" stroke="#D1D5DB" stroke-width="0.5"/>
<rect x="77.8105" y="139.622" width="31.3804" height="31.3804" stroke="#D1D5DB" stroke-width="0.5"/>
<rect x="202.381" y="139.622" width="30.4295" height="31.3804" stroke="#D1D5DB" stroke-width="0.5"/>
<rect x="47.3809" y="139.622" width="30.4295" height="31.3804" stroke="#D1D5DB" stroke-width="0.5"/>
<path d="M294.619 139.622H326V163.002C326 167.421 322.418 171.002 318 171.002H294.619V139.622Z" stroke="#D1D5DB" stroke-width="0.5"/>
<rect x="171" y="139.622" width="31.3804" height="31.3804" stroke="#D1D5DB" stroke-width="0.5"/>
<rect x="109.189" y="139.622" width="30.4295" height="31.3804" stroke="#D1D5DB" stroke-width="0.5"/>
<rect x="232.811" y="139.622" width="31.3804" height="31.3804" stroke="#D1D5DB" stroke-width="0.5"/>
<rect x="16" y="77.8103" width="31.3804" height="31.3804" stroke="#D1D5DB" stroke-width="0.5"/>
<rect x="264.19" y="77.8103" width="30.4295" height="31.3804" stroke="#D1D5DB" stroke-width="0.5"/>
<rect x="139.619" y="77.8103" width="31.3804" height="31.3804" stroke="#D1D5DB" stroke-width="0.5"/>
<rect x="77.8105" y="77.8103" width="31.3804" height="31.3804" stroke="#D1D5DB" stroke-width="0.5"/>
<rect x="202.381" y="77.8103" width="30.4295" height="31.3804" stroke="#D1D5DB" stroke-width="0.5"/>
<rect x="47.3809" y="77.8103" width="30.4295" height="31.3804" stroke="#D1D5DB" stroke-width="0.5"/>
<rect x="294.619" y="77.8103" width="31.3804" height="31.3804" stroke="#D1D5DB" stroke-width="0.5"/>
<rect x="171" y="77.8103" width="31.3804" height="31.3804" stroke="#D1D5DB" stroke-width="0.5"/>
<rect x="109.189" y="77.8103" width="30.4295" height="31.3804" stroke="#D1D5DB" stroke-width="0.5"/>
<rect x="232.811" y="77.8103" width="31.3804" height="31.3804" stroke="#D1D5DB" stroke-width="0.5"/>
<rect x="16" y="47.3779" width="31.3804" height="30.4295" stroke="#D1D5DB" stroke-width="0.5"/>
<path d="M16 24C16 19.5817 19.5817 16 24 16H47.3804V47.3804H16V24Z" stroke="#D1D5DB" stroke-width="0.5"/>
<rect x="264.189" y="47.3779" width="30.4295" height="30.4295" stroke="#D1D5DB" stroke-width="0.5"/>
<rect x="264.19" y="16" width="30.4295" height="31.3804" stroke="#D1D5DB" stroke-width="0.5"/>
<rect x="139.619" y="47.3779" width="31.3804" height="30.4295" stroke="#D1D5DB" stroke-width="0.5"/>
<rect x="139.619" y="16" width="31.3804" height="31.3804" stroke="#D1D5DB" stroke-width="0.5"/>
<rect x="77.8105" y="47.3779" width="31.3804" height="30.4295" stroke="#D1D5DB" stroke-width="0.5"/>
<rect x="77.8105" y="16" width="31.3804" height="31.3804" stroke="#D1D5DB" stroke-width="0.5"/>
<rect x="202.381" y="47.3779" width="30.4295" height="30.4295" stroke="#D1D5DB" stroke-width="0.5"/>
<rect x="202.381" y="16" width="30.4295" height="31.3804" stroke="#D1D5DB" stroke-width="0.5"/>
<rect x="47.3809" y="47.3779" width="30.4295" height="30.4295" stroke="#D1D5DB" stroke-width="0.5"/>
<rect x="47.3809" y="16" width="30.4295" height="31.3804" stroke="#D1D5DB" stroke-width="0.5"/>
<rect x="294.619" y="47.3779" width="31.3804" height="30.4295" stroke="#D1D5DB" stroke-width="0.5"/>
<path d="M294.619 16H318C322.418 16 326 19.5817 326 24V47.3804H294.619V16Z" stroke="#D1D5DB" stroke-width="0.5"/>
<rect x="171" y="47.3779" width="31.3804" height="30.4295" stroke="#D1D5DB" stroke-width="0.5"/>
<rect x="171" y="16" width="31.3804" height="31.3804" stroke="#D1D5DB" stroke-width="0.5"/>
<rect x="109.189" y="47.3779" width="30.4295" height="30.4295" stroke="#D1D5DB" stroke-width="0.5"/>
<rect x="109.189" y="16" width="30.4295" height="31.3804" stroke="#D1D5DB" stroke-width="0.5"/>
<rect x="232.811" y="47.3779" width="31.3804" height="30.4295" stroke="#D1D5DB" stroke-width="0.5"/>
<rect x="232.811" y="16" width="31.3804" height="31.3804" stroke="#D1D5DB" stroke-width="0.5"/>
<rect x="16" y="109.189" width="31.3804" height="30.4295" stroke="#D1D5DB" stroke-width="0.5"/>
<rect x="264.19" y="109.189" width="30.4295" height="30.4295" stroke="#D1D5DB" stroke-width="0.5"/>
<rect x="139.619" y="109.189" width="31.3804" height="30.4295" stroke="#D1D5DB" stroke-width="0.5"/>
<rect x="77.8105" y="109.189" width="31.3804" height="30.4295" stroke="#D1D5DB" stroke-width="0.5"/>
<rect x="202.381" y="109.189" width="30.4295" height="30.4295" stroke="#D1D5DB" stroke-width="0.5"/>
<rect x="47.3809" y="109.189" width="30.4295" height="30.4295" stroke="#D1D5DB" stroke-width="0.5"/>
<rect x="294.619" y="109.189" width="31.3804" height="30.4295" stroke="#D1D5DB" stroke-width="0.5"/>
<rect x="171" y="109.189" width="31.3804" height="30.4295" stroke="#D1D5DB" stroke-width="0.5"/>
<rect x="109.189" y="109.189" width="30.4295" height="30.4295" stroke="#D1D5DB" stroke-width="0.5"/>
<rect x="232.811" y="109.189" width="31.3804" height="30.4295" stroke="#D1D5DB" stroke-width="0.5"/>
<rect x="62" y="78" width="31" height="31" rx="15.5" fill="#B84317"/>
<rect x="248" y="78" width="31" height="31" rx="15.5" fill="#024F2F"/>
<path d="M78 93.5H108.5L140 48L170.5 93.5L202.5 140L233 93.5H264.5" stroke="black" stroke-width="0.5"/>
</svg>
